<?xml version="1.0" standalone="no"?>
<!DOCTYPE svg PUBLIC "-//W3C//DTD SVG 1.1//EN" "http://www.w3.org/Graphics/SVG/1.1/DTD/svg11.dtd">
<svg xmlns="http://www.w3.org/2000/svg" id="Layer_2" data-name="Layer 2" viewBox="0 0 286.88 356.27" width="286.8800048828125" height="356.2699890136719">
  <defs>
    <style>
      .cls-1 {
        fill: #1d1d1b;
      }

      .cls-2 {
        fill: #010101;
      }
    </style>
  </defs>
  <g id="Camada_1" data-name="Camada 1">
    <g>
      <g>
        <rect class="cls-1" x="0" y="38.31" width="13.38" height="153.86" rx="5.4" ry="5.4"/>
        <rect class="cls-1" x="94.29" y="38.31" width="13.38" height="153.86" rx="5.4" ry="5.4"/>
        <rect class="cls-1" x="47.15" y="76.93" width="13.38" height="153.86" rx="5.4" ry="5.4"/>
        <rect class="cls-1" x="141.44" y="5.5" width="13.38" height="153.86" rx="5.4" ry="5.4"/>
        <rect class="cls-1" x="181.13" y="40.07" width="13.38" height="153.86" rx="5.4" ry="5.4"/>
        <rect class="cls-1" x="225.66" y="0" width="13.38" height="153.86" rx="5.4" ry="5.4"/>
        <rect class="cls-1" x="273.5" y="68.82" width="13.38" height="153.86" rx="5.4" ry="5.4"/>
      </g>
      <rect class="cls-2" x="99.21" y="48.97" width="3.54" height="273.84" rx="1.77" ry="1.77"/>
      <rect class="cls-2" x="52.06" y="82.43" width="3.54" height="273.84" rx="1.77" ry="1.77"/>
      <rect class="cls-2" x="146.36" y="29.26" width="3.54" height="273.84" rx="1.77" ry="1.77"/>
      <rect class="cls-2" x="4.92" y="68.46" width="3.54" height="273.84" rx="1.77" ry="1.77"/>
      <rect class="cls-2" x="186.05" y="54.36" width="3.54" height="273.84" rx="1.77" ry="1.77"/>
      <rect class="cls-2" x="230.58" y="10.34" width="3.54" height="273.84" rx="1.77" ry="1.77"/>
      <rect class="cls-2" x="278.42" y="70.76" width="3.54" height="273.84" rx="1.77" ry="1.77"/>
    </g>
  </g>
</svg>