<?xml version="1.0" standalone="no"?>
<!DOCTYPE svg PUBLIC "-//W3C//DTD SVG 1.1//EN" "http://www.w3.org/Graphics/SVG/1.1/DTD/svg11.dtd">
<svg xmlns="http://www.w3.org/2000/svg" id="Layer_1" version="1.1" viewBox="0 0 3884.9 2426.6" width="3884.89990234375" height="2426.60009765625">
  <!-- Generator: Adobe Illustrator 29.3.1, SVG Export Plug-In . SVG Version: 2.1.0 Build 151)  -->
  <defs>
    <style>
      .st0, .st1 {
        fill: #fff;
      }

      .st1 {
        fill-rule: evenodd;
      }
    </style>
  </defs>
  <g>
    <path class="st0" d="M124.6,2258.8c8.5-6.8,14.2-12.7,17-17.6,2.6-5.5,3.8-11.6,3.8-18.4v-221.9c0-5.5-.1-8.9-.4-10.4-.3-1.5-1.2-3.8-2.7-7-1.5-3.1-3.3-6.1-5.3-9-2-2.9-5.1-6.5-9.2-10.9h64.3l165.4,209.2v-172c0-7.1-.9-12.6-2.7-16.6-1.8-4-3.5-7.1-5.1-9.4-1.6-2.3-4.8-6.1-9.4-11.3h74.9c-6.8,8.2-11.3,14.7-13.5,19.4-2.2,4.8-3.3,10.7-3.3,17.8v270.7c-7.6-1.6-12.8-3-15.4-4.1-2.6-1.1-7.9-4.2-15.8-9.4-4.6-3-8.6-5.7-11.9-8.2-3.3-2.5-7.2-5.9-11.7-10.4-4.5-4.5-10.2-11.1-17-19.8-1.9-1.9-3.7-4-5.3-6.1-2.7-3.3-4.6-5.7-5.7-7.4l-129.8-162.3v179.8c0,6,1.4,11.7,4.1,17.2,2.7,5.5,8.6,11.5,17.6,18h-83.1Z"/>
    <path class="st0" d="M452.6,2261.3c6.7-5.4,11.1-10.1,13.3-14.1.7-2,1.3-4.4,2-7.2.7-2.8,1-5.3,1-7.5v-177.3c0-6.1-.8-10.9-2.3-14.4-1.5-3.5-5.2-8.6-11.1-15.4h137.4v49.1c-8-12-17-18-27-18h-53.4v63.4h59.5v41.5c-4.3-5-8.9-8.5-13.7-10.5-4.8-2-11.4-2.9-19.8-2.9h-26v81.1c9.1,1.3,16.1,2.2,21,2.6,4.9.4,10.6.7,17.1.7h17.6c11.9-1.1,21.4-3,28.4-5.7,7-2.7,15.5-7.7,25.8-14.9l-17,49.4h-152.7Z"/>
    <path class="st0" d="M633.6,2025.6h60.4l63.7,183.2,52.6-153.4.8-4.2c0-8.7-6.1-17.2-18.3-25.5h53.7l64.8,188,54.6-158.2c.8-2.4,1.2-5,1.2-7.9,0-4.4-.8-7.8-2.3-10.2-1.5-2.4-5.3-6.3-11.4-11.8h58.9l-89.3,245.9-4.6-1.6c-3.1-1.3-6-2.5-8.8-3.6-2.8-1.1-5.7-2.4-8.5-3.9-6.1-3.1-11.3-6.9-15.7-11.4-4.4-4.6-7.5-9.7-9.5-15.4l-5.2-16-42.5-113.8-58.5,164.2c-6.8-2.4-11.7-4.4-14.9-6-3.2-1.6-6.8-3.8-11-6.4-10.3-6.5-16.7-13.6-19.3-21.3l-4.3-11.4-63.8-169.4c-2-5.4-4.6-10.4-7.8-14.7-1.3-1.7-3.4-4-6.4-6.9-2.9-2.8-5.8-5.6-8.7-8.2Z"/>
    <path class="st0" d="M1161.5,2261.3c7.7-5.8,13.2-11.5,16.5-17.1,3.3-5.6,4.9-12,4.9-19.2v-223.4c0-8.2-1.1-14.7-3.3-19.4-2.2-4.7-7.3-10.7-15.3-18.1h90.7c-6.5,6.9-11.1,13.2-13.9,19-2.8,5.8-4.2,12-4.2,18.6v80h144.3v-80c0-7.4-1.2-13.7-3.7-19-2.5-5.2-7.3-11.4-14.4-18.6h91.1c-7.7,7.4-12.8,13.6-15.3,18.6-2.5,4.9-3.7,11.3-3.7,19v223.4c0,7.7,1.5,14.2,4.5,19.4,3,5.2,8.7,10.9,16.9,16.9h-96.1c4.4-3.3,7.7-6.2,9.9-8.7,2.2-2.5,4.5-5.9,7-10.3,2.5-4.4,3.7-10.2,3.7-17.4v-105.8h-144.3v105.8c0,7.4,1.5,13.8,4.4,19,3,5.2,8.4,11,16.2,17.4h-96.1Z"/>
    <path class="st0" d="M1485.3,2261.3c6.7-5.4,11.1-10.1,13.3-14.1.7-2,1.3-4.4,2-7.2.7-2.8,1-5.3,1-7.5v-177.3c0-6.1-.8-10.9-2.3-14.4-1.5-3.5-5.2-8.6-11.1-15.4h137.4v49.1c-8-12-17-18-27-18h-53.4v63.4h59.5v41.5c-4.3-5-8.9-8.5-13.7-10.5-4.8-2-11.4-2.9-19.8-2.9h-26v81.1c9.1,1.3,16.1,2.2,21,2.6,4.9.4,10.6.7,17.1.7h17.6c11.9-1.1,21.4-3,28.4-5.7,7-2.7,15.5-7.7,25.8-14.9l-17,49.4h-152.7Z"/>
    <path class="st0" d="M1665.3,2261.3c5-2.8,8.6-5.1,10.8-6.9,2.2-1.7,4.8-4.1,7.8-7.2,1.7-2,3.4-4.3,5.1-6.9,1.6-2.6,3.1-5.2,4.4-7.8l73.3-176.6c1.5-4.6,2.3-8.8,2.3-12.8s-.5-4.9-1.5-7.5c-1-2.6-2.9-6-5.7-10.1h58.9l82.4,207c1.7,5.2,4.8,10.1,9.2,14.7,2.2,2.2,4.6,4.4,7.4,6.5,2.7,2.2,6.5,4.7,11.3,7.5h-85.4c4.4-3.5,7.4-6.6,9.2-9.5,1.7-2.8,2.6-6.1,2.6-9.8s-.5-6.2-1.6-9.5l-20.9-54.9h-84.1l-21.3,54.9c-1,3.3-1.4,6.7-1.4,10.2,0,6.3,3.7,12.6,11.1,18.7h-73.6ZM1793.7,2064.9l-32.2,84.6h63.4l-31.1-84.6Z"/>
    <path class="st0" d="M1959.4,2261.3c6.1-4.6,10.4-8.9,12.8-13.1,2.4-4.1,3.6-9.2,3.6-15v-177.6c0-5-1-9.9-3.1-14.7-1.4-2.2-2.7-4.2-4.1-6.2-1.4-2-3.9-5-7.5-9.2h81.1c26.4,0,47,5.3,62,16,14.9,10.7,22.4,25.5,22.4,44.5s-5,27.3-15,37.3c-5.7,5.7-11.2,9.8-16.7,12.4-5.5,2.6-14.1,5.3-25.8,8.2l21.9,29.1c4.6,6.1,10.8,13.6,18.6,22.6,8.7,9.8,18.1,19.8,28.1,30.1,8.9,9.4,16,16.2,21.1,20.4,5.1,4.3,12.9,9.3,23.4,15.2h-53c-8.7,0-18.1-5-28.1-15-11.8-12-23.8-26.7-36-44.2-8.3-11.1-15.6-21.4-21.9-30.7-5-7.4-12.2-18.6-21.6-33.7,41-5.7,61.5-21.6,61.5-47.7s-17.3-36.6-52-36.6h-13.1v179.2c0,6.3,1.1,11.5,3.4,15.4,2.3,3.9,6.7,8.4,13.2,13.4h-75.2Z"/>
    <path class="st0" d="M2192.4,2071l14.4-45.5h181.9l-15,47.7c-2.6-3.7-4.9-6.2-6.9-7.5-8.3-5.9-21.5-8.8-39.6-8.8h-15.7v175.5c0,1.8.3,4.2,1,7.2.7,3.1,1.5,5.6,2.6,7.5,1.7,4.2,6.2,8.9,13.4,14.1h-76.5c6.5-5.2,10.7-9.9,12.4-14.1,2.4-4.1,3.6-9,3.6-14.7v-174.6l-17.3-1h-9.6c-2.9,0-7.4.3-13.4,1-6,.7-11.3,1.8-16,3.4-4.7,1.6-11.1,4.8-19.1,9.6Z"/>
    <path class="st0" d="M2539.1,2261.3c4.9-3.6,8.5-6.7,10.9-9.3,2.4-2.6,4.5-5.4,6.2-8.5,2.9-5.5,4.3-11.7,4.3-18.6v-224.1c0-7.2-1.2-13.3-3.7-18.4-2.5-5.1-7.4-11.4-14.9-18.8h91.2c31.9,0,57.6,4,77.2,12,12.1,5.2,21.6,12.8,28.5,22.7,6.9,9.9,10.3,21.3,10.3,34.3s-5.1,28.1-15.3,38c-3.9,4.1-8.1,7.6-12.8,10.3-4.7,2.8-11.1,5.5-19.4,8.3,11,1.7,19.5,3.6,25.6,5.8,6.1,2.2,12.1,5.6,18.2,10.3,19,14.3,28.5,34,28.5,59s-1.8,20.2-5.4,30.1c-3.6,9.9-8.7,19-15.3,27.2-12.4,14.6-28.1,24.8-47.1,30.7-19,5.9-45.5,8.9-79.7,8.9h-87.5ZM2613.8,1996.8v88.3c5.8.8,10.2,1.2,13.3,1.2,23.5,0,40.1-4.3,49.8-12.8,9.7-9.1,14.5-19.9,14.5-32.6s-4.8-25.4-14.5-33.4c-9.7-8-23.5-12-41.5-12l-21.6,1.2ZM2613.8,2115.2v106.5c8.8,2.2,15.5,3.6,20,4.1,4.5.6,10.1.8,16.7.8,19.5,0,35.6-5.4,48.3-16.1,12.7-10.7,19-24.6,19-41.7s-3.3-22.2-9.9-31.2c-6.6-8.9-16-15.1-28.3-18.6-12.2-3.4-25.9-5.2-41.1-5.2l-24.8,1.2Z"/>
    <path class="st0" d="M2794.3,2261.3c6.1-4.6,10.4-8.9,12.8-13.1,2.4-4.1,3.6-9.2,3.6-15v-177.6c0-5-1-9.9-3.1-14.7-1.4-2.2-2.7-4.2-4.1-6.2-1.4-2-3.9-5-7.5-9.2h81.1c26.4,0,47,5.3,62,16,14.9,10.7,22.4,25.5,22.4,44.5s-5,27.3-15,37.3c-5.7,5.7-11.2,9.8-16.7,12.4-5.5,2.6-14.1,5.3-25.8,8.2l21.9,29.1c4.6,6.1,10.8,13.6,18.6,22.6,8.7,9.8,18.1,19.8,28.1,30.1,8.9,9.4,16,16.2,21.1,20.4,5.1,4.3,12.9,9.3,23.4,15.2h-53c-8.7,0-18.1-5-28.1-15-11.8-12-23.8-26.7-36-44.2-8.3-11.1-15.6-21.4-21.9-30.7-5-7.4-12.2-18.6-21.6-33.7,41-5.7,61.5-21.6,61.5-47.7s-17.3-36.6-52-36.6h-13.1v179.2c0,6.3,1.1,11.5,3.4,15.4,2.3,3.9,6.7,8.4,13.2,13.4h-75.2Z"/>
    <path class="st0" d="M3037.5,2261.3c5-2.8,8.6-5.1,10.8-6.9,2.2-1.7,4.8-4.1,7.8-7.2,1.7-2,3.4-4.3,5.1-6.9,1.6-2.6,3.1-5.2,4.4-7.8l73.3-176.6c1.5-4.6,2.3-8.8,2.3-12.8s-.5-4.9-1.5-7.5c-1-2.6-2.9-6-5.7-10.1h58.9l82.4,207c1.7,5.2,4.8,10.1,9.2,14.7,2.2,2.2,4.6,4.4,7.4,6.5,2.7,2.2,6.5,4.7,11.3,7.5h-85.4c4.4-3.5,7.4-6.6,9.2-9.5,1.7-2.8,2.6-6.1,2.6-9.8s-.5-6.2-1.6-9.5l-20.9-54.9h-84.1l-21.3,54.9c-1,3.3-1.4,6.7-1.4,10.2,0,6.3,3.7,12.6,11.1,18.7h-73.6ZM3165.9,2064.9l-32.2,84.6h63.4l-31.1-84.6Z"/>
    <path class="st0" d="M3323.4,2205.4c7.6,5.1,13.6,8.7,18.2,11.1,4.5,2.3,10.5,4.7,17.9,7.1,7.4,2.4,14.2,4.3,20.6,5.5,6.3,1.3,12.3,1.9,18,1.9,12.9,0,23.4-3.1,31.8-9.3,8.3-6.2,12.5-14.1,12.5-23.6s-.9-7.4-2.7-10.9c-1.8-3.5-4.7-6.7-8.7-9.6-4-2.9-8.8-6-14.4-9.2-5.6-3.2-11.3-5.9-17.2-8.2l-27.8-11.7c-13.7-5.7-24.3-13.6-31.9-23.7-7.6-10.1-11.4-21.3-11.4-33.5,0-19.8,8-35.7,24-47.7,16-12,37.2-18,63.5-18h14.9c8.4,1.1,13.7,1.8,15.8,2.2,2.1.4,7.3,1.7,15.5,3.8v42.6c-2.7-2.4-5.5-4.5-8.2-6.4-2.7-1.8-5.4-3.6-7.9-5.4-9.7-5.9-21.1-8.8-34.1-8.8s-22.6,2.8-30.4,8.2c-7.8,5.5-11.7,12.6-11.7,21.2s3,13.8,9,19.2c6,5.4,16.7,11.4,32.1,17.9l26.9,11.1c7.4,3.4,15.1,8.1,23.1,14.3,15.4,12.1,23.1,26.6,23.1,43.8s-8.7,38.2-26.2,51.7c-17.5,13.5-39.8,20.3-67,20.3s-8-.1-10.7-.3c-2.7-.2-7.2-.7-13.3-1.4-6.1-.7-10.1-1.3-12-1.7-5.3-1.1-11.4-2.7-18.3-5.1l-12.6-47.4Z"/>
    <path class="st0" d="M3504.1,2261.3c11.1-8.1,16.7-17.7,16.7-28.8v-177.3c0-6.8-1-12.2-2.9-16.2-2-4-5.9-8.6-11.8-13.6h72.9c-5.5,4.6-9.3,9.2-11.4,13.7-2.2,4.6-3.3,9.9-3.3,16v177.3c0,10.9,5.6,20.5,16.7,28.8h-76.9Z"/>
    <path class="st0" d="M3601.3,2261.3c10.7-8.7,16-18.3,16-28.8v-177.3c0-6.5-.8-11.7-2.3-15.5-1.5-3.8-4.9-8.6-10.1-14.2h70c-5.5,6.3-9.3,11.7-11.4,16.2-2.2,4.5-3.3,9.1-3.3,13.9v173.7c8.7,1.1,15.6,1.9,20.8,2.3,5.1.4,10.4.7,15.9.7h13.4c3.7-.7,6.4-1.1,8.2-1.3,12.9-1.3,22.3-3.1,28.3-5.2,6-2.2,14.1-6.8,24.4-13.7l-17,49.4h-152.7Z"/>
  </g>
  <path class="st1" d="M1196.7,732v70.4c-.2-1.6-.3-3.3-.3-5v-60.4c0-.4,0-.8,0-1.1,0,0,0,0,0,0,0-1.3.1-2.5.3-3.8Z"/>
  <path class="st1" d="M124.3,1183.6h1071.1v38H124.3v-38Z"/>
  <path class="st1" d="M2352,1183.6v38h-36l12.4-21.2,9.7-16.8h13.9Z"/>
  <g>
    <path class="st1" d="M2380,1050.6h1391v39h-1391v-39Z"/>
    <path class="st1" d="M2169.7,1315.6h1601.3v38h-1601.3v-38Z"/>
    <path class="st1" d="M2076.3,1447.6h1694.7v39h-1694.7v-39Z"/>
    <path class="st1" d="M3771,1580.6v38h-1808.1c5.3-4.7,7.5-10,7.5-15v-23h1800.6Z"/>
    <path class="st1" d="M2258.6,1183.6h1512.4v38h-1512.4v-38Z"/>
  </g>
  <path class="st1" d="M124.3,1447.6h1320.8v39H124.3v-39Z"/>
  <path class="st1" d="M1599.8,1580.6v38H124v-38h1475.9Z"/>
  <path class="st1" d="M124.3,1315.6h1230.4v38H124.3v-38Z"/>
  <path class="st1" d="M124.3,1050.6h957.7v39H124.3v-39Z"/>
  <path class="st1" d="M2969.2,1173.5c-14.6,0-26.8,10.6-29.6,24.6-.4,2-.6,4-.6,6v154.8c0,16.8,13.6,30.6,30.1,30.6s30.1-13.7,30.1-30.6v-154.8c0-2-.1-4-.6-6-2.7-14-14.8-24.6-29.6-24.6h0ZM3370.4,1067.6c-11.6,0-21.7,6.7-26.6,16.4-2.3,4.1-3.6,9-3.6,14v372.9c0,3.7.7,7.1,2,10.4,4.1,11.6,15.1,20,28.1,20s24.1-8.4,28.4-20c1.1-3.3,1.9-6.7,1.9-10.4v-372.9c0-5-1.3-9.8-3.6-14-5-9.7-15-16.4-26.7-16.4ZM3270.2,1161.6c-16.7,0-30.1,13.7-30.1,30.6v188c0,16.8,13.4,30.6,30.1,30.6s30.1-13.7,30.1-30.6v-188c0-16.8-13.6-30.6-30.1-30.6ZM3169.8,932.2c-16.5,0-30.1,13.6-30.1,30.4v640.4c0,3.9.7,7.4,2,10.7,4.3,11.6,15.3,19.7,28.1,19.7s24-8.2,28.3-19.7c1.3-3.3,2-6.8,2-10.7v-640.4c0-16.8-13.6-30.4-30.3-30.4h0ZM3069.6,1108.6c-16.7,0-30.3,13.6-30.3,30.4v288.2c0,16.7,13.6,30.4,30.3,30.4s30.1-13.7,30.1-30.4v-288.2c0-16.8-13.6-30.4-30.1-30.4ZM3571.2,1235.2c-16.7,0-30.3,13.6-30.3,30.4v41c0,9.7,4.4,18.3,11.4,23.8,5.1,4.3,11.9,6.7,18.9,6.7s13.6-2.4,18.7-6.7c7-5.6,11.4-14.1,11.4-23.8v-41c0-16.8-13.6-30.4-30.1-30.4ZM3470.8,1156.9c-16.6,0-30.1,13.7-30.1,30.6v188c0,16.8,13.6,30.6,30.1,30.6s30.1-13.7,30.1-30.6v-188c0-16.8-13.4-30.6-30.1-30.6ZM3671.4,1156.9c-16.6,0-30.1,13.7-30.1,30.6v188c0,16.8,13.6,30.6,30.1,30.6s30.3-13.7,30.3-30.6v-188c0-16.8-13.6-30.6-30.3-30.6ZM3771.8,1235.2c-16.7,0-30.3,13.6-30.3,30.4v41c0,9.7,4.4,18.3,11.4,23.8,5.1,4.3,11.7,6.7,18.8,6.7,16.6,0,30.1-13.7,30.1-30.6v-41c0-16.8-13.6-30.4-30.1-30.4h0ZM2869,1228.6c-16.7,0-30.3,13.7-30.3,30.4v47.7c0,9.6,4.3,18,11.1,23.7,5.1,4.1,12,6.7,19.1,6.7s13.9-2.6,19-6.7c6.8-5.7,11.1-14.1,11.1-23.7v-47.7c0-16.7-13.6-30.4-30.1-30.4h0ZM2768.6,1205c-9.6,0-18,4.4-23.4,11.4-4.1,5.1-6.7,11.9-6.7,19.2v95.3c0,6.7,2.1,13,5.8,18,5.4,7.7,14.3,12.6,24.3,12.6s18.7-4.9,24.3-12.6c3.7-5,5.8-11.3,5.8-18v-95.3c0-7.3-2.6-14-6.6-19.2-5.7-7-14.1-11.4-23.6-11.4h0ZM2668.2,1140.1c-16.6,0-30.1,13.7-30.1,30.6v230.5c0,16.7,13.6,30.4,30.1,30.4s30.3-13.7,30.3-30.4v-230.5c0-16.8-13.6-30.6-30.3-30.6ZM2568,991.2c-16.7,0-30.3,13.6-30.3,30.4v524.3c0,16.8,13.6,30.4,30.3,30.4s30.1-13.6,30.1-30.4v-524.3c0-16.9-13.6-30.4-30.1-30.4ZM2367.4,1166.8c-16.7,0-30.3,13.7-30.3,30.6v175.4c0,16.7,13.6,30.4,30.3,30.4s30.1-13.7,30.1-30.4v-175.4c0-16.8-13.6-30.6-30.1-30.6ZM2166.7,1637.5h0c-16.7,0-30.2-13.5-30.2-30.2v-649.5c0-16.7,13.5-30.2,30.2-30.2h0c16.7,0,30.2,13.5,30.2,30.2v649.5c0,16.7-13.5,30.2-30.2,30.2ZM2066.4,1108.6c-16.7,0-30.3,13.6-30.3,30.4v288.2c0,16.7,13.6,30.4,30.3,30.4s30.1-13.7,30.1-30.4v-288.2c0-16.8-13.6-30.4-30.1-30.4ZM2267,1119.3h0c16.6,0,30.1,13.5,30.1,30.1v326.2c0,16.6-13.5,30.1-30.1,30.1h0c-16.6,0-30.1-13.5-30.1-30.1v-326.2c0-16.6,13.5-30.1,30.1-30.1ZM2467.7,879.3h0c16.7,0,30.2,13.5,30.2,30.2v725.2c0,16.7-13.5,30.2-30.2,30.2h0c-16.7,0-30.2-13.5-30.2-30.2v-725.2c0-16.7,13.5-30.2,30.2-30.2Z"/>
  <path class="st1" d="M3035.4,270c7-81.7,33.6-148.1,33.6-148.1l-3.7-17.5-81.5,7.8-730.8,1000.2-5.3-65.7-27.1-24.6-60.2-54.5-172.4-156-222.3,97.7-188.3-244.6-474.5-159-58.6,180.8-1.4.4-104.6,326.9s12.8,12.5,35.2,34.4c8,7.8,770,760.6,836.3,807.1,174.8-177.2,1082.2-1481.5,1081.2-1474.9-1.9,12,10.5,39.2,37.3,106.3,26.8,67.1,36.7,139.7,20.2,190-39.4,120.1-116.7,239.4-123.7,243.9-7,4.5-4.6,35.2,12.7,26.7,11.2-5.5,137.6-111.8,181.3-192.3,43.7-80.6,55.3-124.8,39.6-220.1-15.7-95.3-29.7-183-22.8-264.7ZM2031.1,1446.9c-17.3,10.1-37.4,18.6-59.5,25.2-11.6,3.4-23.3,7.3-34.9,11.9-44.7,17.6-88.3,45.1-121,94-7.7,11.4-14.7,24.1-21.1,38-3.1,6.8-6,14-8.8,21.5,0,0-25.7-51.8-51.2-78.8-.4-.3-52.1-64.6-114.7-98.9-10-5.4-101.8-59.8-102.9-60.4-13.9-8-28-16.4-41.9-25.1-1.6-1.1-85.8-57.3-86.4-57.8-15-10.8-29.7-21.6-43.7-32.4-19.5-18.5-119.4-106.6-129.8-120.9-3.9-5.4-7-10.3-9.4-14.9-.9-1.7-1.8-3.4-2.6-5.2-24-46.7-61.8-118.2-42-207.7,1-4.5,2.1-9,3.4-13.6,6.5-23.1,17-47.3,32.5-72.6,10.7-17.3,26.9-30.6,46-37.4,45.3-16.1,147.5-23.8,298.1,72.2,3.8-3.8,168.5,146.3,168.5,146.3,13.6-12.3,67.3-35.5,103.4-33.2,51.9,3.3,150.8,7.3,223.6,105.6,1.5,2,3,4.1,4.5,6.2l18.6,28.5s51.9,83.9,59.8,158.2-67.9,139.3-88.5,151.3Z"/>
  <path class="st1" d="M1949.4,1171c-16.6,0-30.1,13.7-30.1,30.4v162.1c0,16.8,13.6,30.4,30.1,30.4s30.1-13.6,30.1-30.4v-162.1c0-16.7-13.4-30.4-30.1-30.4ZM1139.6,799.6c-16.7,0-30.3,13.7-30.3,30.6v907.6c0,16.8,13.6,30.6,30.3,30.6s30.1-13.7,30.1-30.6v-907.6c0-16.9-13.6-30.6-30.1-30.6ZM1443.3,892.5c-16.7,0-30.1,13.6-30.1,30.4v724.6c0,16.7,13.4,30.4,30.1,30.4s30.1-13.7,30.1-30.4v-724.6c0-16.8-13.6-30.4-30.1-30.4ZM1342,935.7c-16.7,0-30.3,13.7-30.3,30.6v638c0,3.4.6,6.6,1.6,9.7,4,12,15.4,20.7,28.7,20.7s24.6-8.7,28.6-20.7c1-3.1,1.6-6.3,1.6-9.7v-638c0-16.8-13.6-30.6-30.1-30.6ZM1848.2,1092.8c-16.6,0-30.1,13.7-30.1,30.4v324.2c0,16.8,13.6,30.4,30.1,30.4s30.1-13.6,30.1-30.4v-324.2c0-16.7-13.4-30.4-30.1-30.4ZM1544.5,1096.1c-16.7,0-30.1,13.6-30.1,30.4v314.4c0,16.7,13.4,30.4,30.1,30.4s30.1-13.7,30.1-30.4v-314.4c0-16.8-13.6-30.4-30.1-30.4ZM1038.3,974c-16.7,0-30.3,13.7-30.3,30.6v560.3c0,16.7,13.6,30.4,30.3,30.4s30.1-13.7,30.1-30.4v-560.3c0-16.9-13.6-30.6-30.1-30.6ZM228.4,1119.5c-16.6,0-30.2,13.7-30.2,30.5v267c0,16.8,13.5,30.5,30.2,30.5s30.2-13.7,30.2-30.5v-267c0-16.8-13.5-30.5-30.2-30.5ZM339,1216.5h0c-3-1-6.1-1.5-9.4-1.5s-6.4.5-9.4,1.5c-12.1,4-20.8,15.5-20.8,29v76.3c0,3,.4,5.9,1.3,8.7,2.3,8.1,8,14.7,15.2,18.5,4.1,2.1,8.7,3.3,13.7,3.3s9.6-1.2,13.7-3.3c7.3-3.8,12.9-10.4,15.2-18.5.8-2.7,1.3-5.7,1.3-8.7v-76.3c0-13.5-8.7-25-20.8-29ZM136.2,1216.5c-2.9-.9-5.9-1.4-9.1-1.4s-2.5,0-3.7.2c-14.9,1.8-26.5,14.7-26.5,30.2v73.7c0,16.8,13.5,30.5,30.2,30.5s4.5-.3,6.6-.8c9.8-2.2,17.8-9.2,21.4-18.5,1.4-3.5,2.1-7.2,2.1-11.2v-73.7c0-13.6-8.9-25.1-21.1-29.1ZM430.8,1018.8c-16.7,0-30.2,13.7-30.2,30.5v469.6c0,16.8,13.5,30.4,30.2,30.4s30.2-13.7,30.2-30.4v-469.6c0-16.8-13.5-30.5-30.2-30.5ZM734.6,1169.4c-16,0-29.2,12.7-30.1,28.6,0,.6,0,1.2,0,1.8v165.8c0,16.8,13.5,30.5,30.2,30.5s30.2-13.7,30.2-30.5v-165.8c0-.6,0-1.2,0-1.8-.9-15.9-14.1-28.6-30.1-28.6ZM842.5,1198c-2.1-.5-4.4-.8-6.7-.8s-4.5.3-6.7.8c-9.8,2.2-17.8,9.2-21.4,18.5-1.4,3.5-2.1,7.2-2.1,11.2v109.7c0,4.1.8,8,2.3,11.6,4.5,11.1,15.3,18.9,27.9,18.9s23.4-7.8,27.9-18.9c1.4-3.6,2.2-7.5,2.2-11.6v-109.7c0-4-.8-7.7-2.1-11.2-3.6-9.2-11.6-16.3-21.4-18.5ZM937.1,1141c-16.7,0-30.2,13.7-30.2,30.5v222c0,16.8,13.5,30.5,30.2,30.5s30.2-13.7,30.2-30.5v-222c0-16.8-13.5-30.5-30.2-30.5ZM633.3,1120.8c-16.6,0-30.2,13.7-30.2,30.5v265.6c0,16.8,13.5,30.5,30.2,30.5s30.2-13.7,30.2-30.5v-265.6c0-16.8-13.5-30.5-30.2-30.5ZM532.1,1174.4c-14.3,0-26.3,10.1-29.4,23.6-.5,2.2-.8,4.5-.8,6.9v160.8c0,16.8,13.5,30.5,30.2,30.5s30.2-13.7,30.2-30.5v-160.8c0-2.4-.3-4.7-.8-6.9-3.1-13.5-15.1-23.6-29.4-23.6ZM1745.7,974.8h0c-16.7,0-30.3,13.5-30.3,30.3v556.9c0,16.7,13.5,30.3,30.3,30.3h0c16.7,0,30.3-13.5,30.3-30.3v-556.9c0-16.7-13.5-30.3-30.3-30.3ZM1645.7,885.5h0c-16.6,0-30.1,13.5-30.1,30.1v715.8c0,16.6,13.5,30.1,30.1,30.1h0c16.6,0,30.1-13.5,30.1-30.1v-715.8c0-16.6-13.5-30.1-30.1-30.1ZM1242.4,706.7h-3.3c-15.8,0-28.6,12.8-28.6,28.6v1075.7c0,15.8,12.8,28.6,28.6,28.6h3.3c15.8,0,28.6-12.8,28.6-28.6V735.3c0-15.8-12.8-28.6-28.6-28.6Z"/>
</svg>