<?xml version="1.0" standalone="no"?>
<!DOCTYPE svg PUBLIC "-//W3C//DTD SVG 1.1//EN" "http://www.w3.org/Graphics/SVG/1.1/DTD/svg11.dtd">
<svg xmlns="http://www.w3.org/2000/svg" xmlns:xlink="http://www.w3.org/1999/xlink" id="Layer_1" version="1.1" viewBox="0 0 3884.9 2426.6" width="3884.89990234375" height="2426.60009765625">
  <!-- Generator: Adobe Illustrator 29.3.1, SVG Export Plug-In . SVG Version: 2.1.0 Build 151)  -->
  <defs>
    <style>
      .st0 {
        fill: #fff;
      }

      .st1 {
        fill: url(#linear-gradient1);
      }

      .st2 {
        fill: #009c3b;
      }

      .st3, .st4 {
        fill-rule: evenodd;
      }

      .st4 {
        fill: url(#linear-gradient);
      }
    </style>
    <linearGradient id="linear-gradient" x1="2052.8" y1="1520.5" x2="3801.1" y2="1520.5" gradientUnits="userSpaceOnUse">
      <stop offset="0" stop-color="#00963e"/>
      <stop offset=".9" stop-color="#003071"/>
      <stop offset="1" stop-color="#002776"/>
    </linearGradient>
    <linearGradient id="linear-gradient1" x1="104.8" y1="1495.4" x2="1983.2" y2="1495.4" gradientUnits="userSpaceOnUse">
      <stop offset="0" stop-color="#fddd01"/>
      <stop offset=".1" stop-color="#e7d706"/>
      <stop offset=".4" stop-color="#afc813"/>
      <stop offset=".7" stop-color="#56b027"/>
      <stop offset="1" stop-color="#009a3c"/>
    </linearGradient>
  </defs>
  <g>
    <path class="st0" d="M2380,1272.9h1391v39h-1391v-39Z"/>
    <path class="st0" d="M2191.4,1537.9h1579.6v38h-1579.6v-38Z"/>
    <path class="st0" d="M2244.8,1405.9h1526.2v38h-1526.2v-38Z"/>
    <path class="st0" d="M3771,1669.9v39h-1670.4c.2-.3.5-.7.8-1,12-5.9,20.9-17.3,23.1-31,0,0,3.5-4.7,5.2-7h1641.3Z"/>
    <path class="st0" d="M3771,1802.9v38h-1770.3c8.8-11.5,17.7-23.2,26.7-34.9l1.4-3.1h1742.2Z"/>
    <path class="st4" d="M3251.5,1395.8h0c-14.6,0-26.8,10.6-29.6,24.6-.4,2-.6,4-.6,6v154.8c0,16.9,13.6,30.6,30.1,30.6s30.1-13.7,30.1-30.6v-154.8c0-2-.1-4-.6-6-2.7-14-14.8-24.6-29.6-24.6ZM3641.1,1383.9c-16.7,0-30.1,13.7-30.1,30.6v188c0,16.9,13.4,30.6,30.1,30.6s30.1-13.7,30.1-30.6v-188c0-16.9-13.6-30.6-30.1-30.6ZM3511.2,1154.5h0c-16.5,0-30.1,13.6-30.1,30.4v640.4c0,3.9.7,7.4,2,10.7,4.3,11.6,15.3,19.7,28.1,19.7s24-8.2,28.3-19.7c1.3-3.3,2-6.8,2-10.7v-640.4c0-16.8-13.6-30.4-30.3-30.4ZM3381.4,1330.9c-16.7,0-30.3,13.6-30.3,30.4v288.2c0,16.7,13.6,30.4,30.3,30.4s30.1-13.7,30.1-30.4v-288.2c0-16.9-13.6-30.4-30.1-30.4ZM3121.7,1450.9h0c-16.7,0-30.3,13.7-30.3,30.4v47.7c0,9.6,4.3,18,11.1,23.7,5.1,4.1,12,6.7,19.1,6.7s13.9-2.6,19-6.7c6.8-5.7,11.1-14.1,11.1-23.7v-47.7c0-16.7-13.6-30.4-30.1-30.4ZM2991.7,1427.3c-9.6,0-18,4.4-23.4,11.4-4.1,5.1-6.7,11.9-6.7,19.2v95.3c0,6.7,2.2,13,5.8,18,5.4,7.7,14.3,12.6,24.3,12.6s18.7-4.9,24.3-12.6c3.7-5,5.8-11.3,5.8-18v-95.3c0-7.3-2.6-14-6.6-19.2-5.7-7-14.1-11.4-23.6-11.4ZM3794.5,1438.8c-5.7-7-14.1-11.4-23.6-11.4-9.6,0-18,4.4-23.4,11.4-4.1,5.1-6.7,11.9-6.7,19.2v95.3c0,6.7,2.1,13,5.8,18,5.4,7.7,14.3,12.6,24.3,12.6s18.7-4.9,24.3-12.6c3.7-5,5.8-11.3,5.8-18v-95.3c0-7.3-2.6-14-6.6-19.2ZM2861.8,1362.4c-16.6,0-30.1,13.7-30.1,30.6v230.5c0,16.7,13.6,30.4,30.1,30.4s30.3-13.7,30.3-30.4v-230.5c0-16.8-13.6-30.6-30.3-30.6ZM2732.1,1213.5c-16.7,0-30.3,13.6-30.3,30.4v524.3c0,16.9,13.6,30.4,30.3,30.4s30.1-13.6,30.1-30.4v-524.3c0-16.9-13.6-30.4-30.1-30.4ZM2212.7,1153.7c-16.6,0-30.1,13.5-30.1,30.1v648.4c0,16.6,13.5,30.1,30.1,30.1s30.1-13.5,30.1-30.1v-648.4c0-16.6-13.5-30.1-30.1-30.1ZM2342.5,1345.4c-16.6,0-30.1,13.5-30.1,30.1v324.8c0,16.6,13.5,30.1,30.1,30.1s30.1-13.5,30.1-30.1v-324.8c0-16.6-13.5-30.1-30.1-30.1ZM2472.3,1389.1c-16.7,0-30.2,13.5-30.2,30.2v175.6c0,16.7,13.5,30.2,30.2,30.2s30.2-13.5,30.2-30.2v-175.6c0-16.7-13.5-30.2-30.2-30.2ZM2601.8,1153.7c-16.6,0-30.1,13.5-30.1,30.1v673.3c0,16.6,13.5,30.1,30.1,30.1s30.1-13.5,30.1-30.1v-673.3c0-16.6-13.5-30.1-30.1-30.1ZM2082.9,1393.3c-16.6,0-30.1,13.5-30.1,30.1v162.8c0,16.6,13.5,30.1,30.1,30.1s30.1-13.5,30.1-30.1v-162.8c0-16.6-13.5-30.1-30.1-30.1Z"/>
    <g>
      <rect class="st0" x="124" y="1802.9" width="878.1" height="38"/>
      <rect class="st0" x="1086.4" y="1802.9" width="435" height="38"/>
    </g>
    <path class="st0" d="M1518.2,1624.4c1.1.6,2.2,1.2,3.2,1.9v178.9c-.8-.8-1.6-1.5-2.4-2.3-.3-.3-.6-.6-.9-.8-31.2-30.2-63.5-61.5-96.1-93.2-3.1-3-6.1-5.9-9.2-8.9,6.2,3.5,13.3,5.6,20.9,5.6,21,0,38.4-15.5,41.6-35.7.4-2.2.5-4.4.5-6.7v-64.1c14.1,8.8,28.2,17.2,42.3,25.3Z"/>
    <path class="st0" d="M1398,1685.5c-5.4-5.2-10.7-10.4-16.1-15.6-11.9-11.6-23.9-23.2-35.8-34.8v-126c14,10.8,28.6,21.6,43.7,32.4.6.4,1.2.9,1.8,1.3v120.3c0,2.3.2,4.6.5,6.7.9,5.7,2.9,10.9,5.8,15.6Z"/>
    <path class="st0" d="M1002,1044.5v255.5c-10.4-10.1-19.7-19.2-27.7-27.1-22.4-21.9-35.2-34.4-35.2-34.4l62.9-194.1Z"/>
    <g>
      <rect class="st0" x="124.5" y="1405.9" width="877.5" height="38"/>
      <rect class="st0" x="1086.4" y="1405.9" width="110.5" height="38"/>
    </g>
    <path class="st0" d="M2137,1840.9h0s-125,0-125,0l9.4-21.5,6-13.4,1.4-3.1h106.9v23c0,5,.4,10.3,1.3,15Z"/>
    <rect class="st0" x="124.5" y="1669.9" width="877.5" height="39"/>
    <path class="st0" d="M1422,1708.9h-335.6v-39h295.5s37.1,36,40.2,39Z"/>
    <g>
      <rect class="st0" x="124.5" y="1537.9" width="877.5" height="38"/>
      <rect class="st0" x="1086.4" y="1537.9" width="175.4" height="38"/>
    </g>
    <g>
      <rect class="st0" x="124.3" y="1272.9" width="877.7" height="39"/>
      <rect class="st0" x="1086.4" y="1272.9" width="28.6" height="39"/>
    </g>
    <path class="st3" d="M2028.7,1802.9l-1.4,3.1c.8-1,1.5-2,2.3-3.1h-1Z"/>
    <path class="st0" d="M3036.4,494.8c7-81.7,33.6-148.1,33.6-148.1l-3.7-17.5-81.5,7.8-730.8,1000.2-5.3-65.7-27.1-24.6-60.2-54.5-172.4-156-222.3,97.7-188.3-244.6-474.5-159-60.5,186.6h2.5c22.4,0,40.6,18.2,40.6,40.6v424.7c7.9,7.7,15.9,15.5,24.2,23.6,7,6.8,14.1,13.7,21.3,20.8,4,3.9,8,7.8,12,11.7,1.9,1.8,3.8,3.7,5.7,5.5,17.6,17.2,35.9,35,54.7,53.3,4,3.9,8,7.8,12,11.7,9.8,9.6,19.8,19.2,29.8,29,5.2,5.1,10.4,10.2,15.7,15.3v-115.2c-19.5-18.5-35.2-35.5-45.5-49.8-3.9-5.4-7-10.3-9.4-14.9-.9-1.7-1.8-3.4-2.6-5.2-24-46.7-61.8-118.2-42-207.7,1-4.5,2.1-9,3.4-13.6,6.5-23.1,17-47.3,32.5-72.6,10.7-17.3,26.9-30.6,46-37.4,45.3-16.1,138.8-24.5,289.3,71.4,3.8-3.8,8.4-7,13.5-9.1,5.2-2.2,10.7-3.3,16.4-3.3,11.2,0,21.8,4.4,29.8,12.3,8,8,12.3,18.5,12.3,29.8v21.2c17.2,13.3,35,27.8,53.4,43.6,7.7-10.7,20.2-17.7,34.4-17.7,23.3,0,42.3,18.9,42.3,42.2v8.6c13.6-12.3,37.7-27.2,73.8-24.9,51.9,3.3,155.6,18.3,228.3,116.6,1.5,2,3,4.1,4.5,6.2,29.7,45.2,49.1,92.8,61.7,137.7,1.7,6.1,3.3,12.1,4.7,18.1,4.5,20.2,9.5,52.8,3.4,79.2-10.8,46.6-31.8,72.2-71.3,99.1v-1.3c-1.7,1.1-3.5,2.1-5.3,3.2-1.1.6-2.2,1.3-3.3,1.9-17.4,9.8-37.4,18.6-59.5,25.2-11.6,3.4-23.3,7.3-34.9,11.9-44.7,17.6-88.3,45.1-121,94-7.7,11.4-14.7,24.1-21.1,38-3.1,6.8-6,14-8.8,21.5,0,0-3.6-8.1-11.4-21.5-5.9-10.1-14.1-23.2-24.9-38-4.5-6.1-9.4-12.6-14.8-19.3v.6c0,6.7-1.6,13-4.4,18.7-6.9,14-21.3,23.6-37.9,23.6s-31-9.6-37.9-23.6c-2.8-5.6-4.4-12-4.4-18.7v-82.4c-.4-.3-.7-.6-1.1-.8-1.2-.9-2.3-1.7-3.5-2.6-1.2-.9-2.4-1.8-3.6-2.7-.8-.6-1.6-1.2-2.5-1.8-2.2-1.6-4.5-3.2-6.8-4.8-.9-.6-1.8-1.2-2.7-1.8-.9-.6-1.8-1.2-2.7-1.8-2-1.4-4.1-2.7-6.2-4-1.2-.8-2.4-1.6-3.7-2.3-1.3-.8-2.5-1.6-3.8-2.4-1.3-.8-2.6-1.6-3.9-2.3-1.3-.8-2.6-1.5-3.9-2.3-.4-.2-.9-.5-1.3-.8v182.3c0,2.8-.3,5.6-.8,8.3-1.2,6.2-3.8,11.8-7.3,16.6,120.4,116.2,209.8,201.4,213.1,201.3,56.4-67.3,121.1-149.1,190.1-239.1,8.8-11.5,17.7-23.2,26.7-34.9l1.4-3.1h1c19.5-25.7,39.3-51.9,59.4-78.6h0s.2-.3.2-.3c3.8-5,7.5-10,11.3-15.1.2-.3.5-.7.8-1,0,0,0,0,0,0l23.3-31.2c0,0,0,.2,0,.2,1.7-2.3,3.5-4.6,5.2-7,9.4-12.7,18.9-25.4,28.3-38.2l.7-.9h0c.9-1.2,1.7-2.3,2.6-3.5,12.6-17,25.2-34.2,37.9-51.4,7.4-10.1,14.9-20.3,22.4-30.4,1.8-2.5,3.7-5,5.5-7.6,22.9-31.2,45.7-62.6,68.5-94,9.2-12.7,18.4-25.3,27.5-38,22.8-31.4,45.4-62.9,67.8-94,9.4-13.1,18.7-26.1,28-39,256.7-358.3,474-674.4,472.9-667.7-1.9,12,10.5,39.2,37.3,106.2,26.8,67.1,36.5,64.7,20.2,190-16.3,125.3-156.8,311.8-163.8,316.2-7,4.5-7.9,24.5.4,25.5,12.4,1.4,190.1-182.9,233.8-263.5,43.7-80.6,55.3-124.8,39.6-220.1-15.7-95.3-29.7-183-22.8-264.7Z"/>
    <path class="st1" d="M784.5,1197.3h0c-16.9,0-30.6,13.7-30.6,30.6v560c0,16.9,13.7,30.6,30.6,30.6h0c16.9,0,30.6-13.7,30.6-30.6v-560c0-16.9-13.7-30.6-30.6-30.6ZM914.3,1021.9c-16.7,0-30.2,13.5-30.2,30.2v908.4c0,16.7,13.5,30.2,30.2,30.2s30.2-13.5,30.2-30.2v-908.4c0-16.7-13.5-30.2-30.2-30.2ZM1045.8,929h-3.3c-1.1,0-2.2,0-3.2.2-14.3,1.6-25.3,13.7-25.3,28.4v1075.7c0,15.8,12.8,28.6,28.6,28.6h3.3c15.8,0,28.6-12.8,28.6-28.6V957.6c0-15.8-12.8-28.6-28.6-28.6ZM654.5,1363.3c-16.7,0-30.2,13.5-30.2,30.2v222.6c0,16.7,13.5,30.2,30.2,30.2s30.2-13.5,30.2-30.2v-222.6c0-16.7-13.5-30.2-30.2-30.2ZM524.6,1419.5c-16.7,0-30.2,13.5-30.2,30.2v110.2c0,16.7,13.5,30.2,30.2,30.2s30.2-13.5,30.2-30.2v-110.2c0-16.7-13.5-30.2-30.2-30.2ZM134.9,1396.7c-16.7,0-30.2,13.5-30.2,30.2v161.3c0,16.7,13.5,30.2,30.2,30.2s30.2-13.5,30.2-30.2v-161.3c0-16.7-13.5-30.2-30.2-30.2ZM394.7,1391.7h0c-16.7,0-30.2,13.5-30.2,30.2v166.4c0,16.7,13.5,30.2,30.2,30.2h0c16.7,0,30.2-13.5,30.2-30.2v-166.4c0-16.7-13.5-30.2-30.2-30.2ZM264.8,1343.1c-16.7,0-30.2,13.5-30.2,30.2v265c0,16.7,13.5,30.2,30.2,30.2s30.2-13.5,30.2-30.2v-265c0-16.7-13.5-30.2-30.2-30.2ZM1563.5,1107.8c-4.1,0-8.1.8-11.7,2.4-2.9,1.2-5.5,2.8-7.8,4.8-6.5,5.5-10.6,13.8-10.6,22.9v715.8c0,16.6,13.5,30.1,30.1,30.1s19.8-5.4,25.2-13.6c2.1-3.1,3.5-6.7,4.3-10.5.4-1.9.6-3.9.6-6v-715.8c0-8.3-3.4-15.8-8.8-21.3-5.4-5.5-13-8.8-21.3-8.8ZM1953.1,1368.7c-16.6,0-30.1,13.5-30.1,30.1v218.6c0,16.6,13.5,30.1,30.1,30.1s30.1-13.5,30.1-30.1v-218.6c0-16.6-13.5-30.1-30.1-30.1ZM1823.4,1315.6c-16.6,0-30.1,13.5-30.1,30.1v324.3c0,16.6,13.5,30.1,30.1,30.1s30.1-13.5,30.1-30.1v-324.3c0-16.6-13.5-30.1-30.1-30.1ZM1693.4,1197.1c-10.5,0-19.8,5.4-25.2,13.6-3.2,4.8-5,10.5-5,16.7v556.8c0,8.4,3.4,15.9,8.9,21.4,5.5,5.5,13,8.9,21.4,8.9,16.7,0,30.3-13.6,30.3-30.3v-556.8c0-16.7-13.6-30.2-30.3-30.2ZM1304,1114.8c-16.7,0-30.1,13.6-30.1,30.4v724.6c0,16.7,13.4,30.4,30.1,30.4s30.1-13.7,30.1-30.4v-724.6c0-16.8-13.6-30.4-30.1-30.4ZM1433.7,1318.4c-16.7,0-30.1,13.6-30.1,30.4v314.4c0,2.3.3,4.6.8,6.7,3,13.5,15,23.7,29.4,23.7s26.3-10.2,29.4-23.7c.5-2.2.8-4.4.8-6.7v-314.4c0-16.8-13.6-30.4-30.1-30.4ZM1174.1,1158c-16.7,0-30.3,13.5-30.3,30.3v638.5c0,16.7,13.5,30.3,30.3,30.3s30.3-13.5,30.3-30.3v-638.5c0-16.7-13.5-30.3-30.3-30.3Z"/>
  </g>
  <g>
    <path class="st0" d="M2029,2091.2c4.1-3.3,6.9-6.2,8.3-8.6,1.2-2.7,1.9-5.6,1.9-9v-107.9c0-2.7,0-4.3-.2-5.1-.1-.7-.6-1.9-1.3-3.4-.7-1.5-1.6-3-2.6-4.4-1-1.4-2.5-3.1-4.5-5.3h31.2l80.4,101.7v-83.6c0-3.4-.4-6.1-1.3-8.1-.9-1.9-1.7-3.4-2.5-4.6-.8-1.1-2.3-2.9-4.6-5.5h36.4c-3.3,4-5.5,7.1-6.6,9.4-1.1,2.3-1.6,5.2-1.6,8.6v131.6c-3.7-.8-6.2-1.5-7.5-2-1.3-.5-3.8-2.1-7.7-4.6-2.3-1.5-4.2-2.8-5.8-4s-3.5-2.9-5.7-5.1c-2.2-2.2-4.9-5.4-8.3-9.6-.9-.9-1.8-1.9-2.6-3-1.3-1.6-2.3-2.8-2.8-3.6l-63.1-78.9v87.4c0,2.9.7,5.7,2,8.4,1.3,2.7,4.2,5.6,8.6,8.8h-40.4Z"/>
    <path class="st0" d="M2188.4,2092.5c3.2-2.6,5.4-4.9,6.5-6.8.3-1,.6-2.1,1-3.5.3-1.4.5-2.6.5-3.7v-86.1c0-3-.4-5.3-1.1-7-.7-1.7-2.5-4.2-5.4-7.5h66.7v23.8c-3.9-5.8-8.3-8.7-13.1-8.7h-26v30.8h28.9v20.2c-2.1-2.4-4.3-4.1-6.6-5.1-2.3-1-5.5-1.4-9.6-1.4h-12.6v39.4c4.4.6,7.8,1.1,10.2,1.3,2.4.2,5.1.3,8.3.3h8.6c5.8-.5,10.4-1.5,13.8-2.8,3.4-1.3,7.6-3.7,12.5-7.2l-8.3,24h-74.2Z"/>
    <path class="st0" d="M2276.3,1977.9h29.4l31,89,25.6-74.6.4-2c0-4.2-3-8.4-8.9-12.4h26.1l31.5,91.4,26.6-76.9c.4-1.2.6-2.4.6-3.8,0-2.1-.4-3.8-1.1-4.9-.7-1.2-2.6-3.1-5.6-5.7h28.6l-43.4,119.5-2.2-.8c-1.5-.6-2.9-1.2-4.3-1.7-1.4-.5-2.8-1.2-4.1-1.9-3-1.5-5.5-3.3-7.6-5.6-2.1-2.2-3.7-4.7-4.6-7.5l-2.5-7.8-20.7-55.3-28.5,79.8c-3.3-1.2-5.7-2.1-7.2-2.9-1.5-.8-3.3-1.8-5.3-3.1-5-3.2-8.1-6.6-9.4-10.3l-2.1-5.6-31-82.3c-1-2.6-2.2-5-3.8-7.2-.6-.8-1.7-2-3.1-3.3-1.4-1.4-2.8-2.7-4.2-4Z"/>
    <path class="st0" d="M2532.9,2092.5c3.7-2.8,6.4-5.6,8-8.3,1.6-2.7,2.4-5.8,2.4-9.3v-108.6c0-4-.5-7.1-1.6-9.4-1.1-2.3-3.5-5.2-7.4-8.8h44.1c-3.1,3.3-5.4,6.4-6.8,9.2-1.4,2.8-2.1,5.8-2.1,9v38.9h70.1v-38.9c0-3.6-.6-6.7-1.8-9.2-1.2-2.5-3.5-5.5-7-9h44.3c-3.7,3.6-6.2,6.6-7.4,9-1.2,2.4-1.8,5.5-1.8,9.2v108.6c0,3.7.7,6.9,2.2,9.4,1.5,2.5,4.2,5.3,8.2,8.2h-46.7c2.1-1.6,3.7-3,4.8-4.2,1.1-1.2,2.2-2.9,3.4-5,1.2-2.1,1.8-5,1.8-8.4v-51.4h-70.1v51.4c0,3.6.7,6.7,2.2,9.2,1.4,2.5,4.1,5.4,7.9,8.4h-46.7Z"/>
    <path class="st0" d="M2690.2,2092.5c3.2-2.6,5.4-4.9,6.5-6.8.3-1,.6-2.1,1-3.5.3-1.4.5-2.6.5-3.7v-86.1c0-3-.4-5.3-1.1-7-.7-1.7-2.5-4.2-5.4-7.5h66.7v23.8c-3.9-5.8-8.3-8.7-13.1-8.7h-26v30.8h28.9v20.2c-2.1-2.4-4.3-4.1-6.6-5.1-2.3-1-5.5-1.4-9.6-1.4h-12.6v39.4c4.4.6,7.8,1.1,10.2,1.3,2.4.2,5.1.3,8.3.3h8.6c5.8-.5,10.4-1.5,13.8-2.8,3.4-1.3,7.6-3.7,12.5-7.2l-8.3,24h-74.2Z"/>
    <path class="st0" d="M2777.7,2092.5c2.4-1.4,4.2-2.5,5.2-3.3,1.1-.8,2.3-2,3.8-3.5.8-1,1.7-2.1,2.5-3.3s1.5-2.5,2.1-3.8l35.6-85.8c.7-2.2,1.1-4.3,1.1-6.2s-.2-2.4-.7-3.7c-.5-1.3-1.4-2.9-2.8-4.9h28.6l40,100.6c.8,2.5,2.3,4.9,4.5,7.2,1.1,1.1,2.2,2.1,3.6,3.2,1.3,1.1,3.2,2.3,5.5,3.7h-41.5c2.1-1.7,3.6-3.2,4.5-4.6.8-1.4,1.3-3,1.3-4.8s-.3-3-.8-4.6l-10.2-26.7h-40.9l-10.4,26.7c-.5,1.6-.7,3.2-.7,4.9,0,3.1,1.8,6.1,5.4,9.1h-35.8ZM2840.1,1997l-15.7,41.1h30.8l-15.1-41.1Z"/>
    <path class="st0" d="M2920.7,2092.5c3-2.2,5-4.3,6.2-6.4,1.2-2,1.7-4.5,1.7-7.3v-86.3c0-2.4-.5-4.8-1.5-7.2-.7-1.1-1.3-2.1-2-3-.7-1-1.9-2.4-3.7-4.5h39.4c12.8,0,22.9,2.6,30.1,7.8,7.3,5.2,10.9,12.4,10.9,21.6s-2.4,13.2-7.3,18.1c-2.8,2.8-5.5,4.8-8.1,6-2.7,1.3-6.8,2.6-12.6,4l10.6,14.1c2.2,3,5.2,6.6,9.1,11,4.2,4.8,8.8,9.6,13.7,14.6,4.3,4.6,7.8,7.9,10.3,9.9,2.5,2.1,6.3,4.5,11.4,7.4h-25.7c-4.2,0-8.8-2.4-13.7-7.3-5.7-5.8-11.5-13-17.5-21.5-4-5.4-7.6-10.4-10.6-14.9-2.4-3.6-5.9-9.1-10.5-16.4,19.9-2.8,29.9-10.5,29.9-23.2s-8.4-17.8-25.3-17.8h-6.4v87.1c0,3.1.6,5.6,1.7,7.5,1.1,1.9,3.3,4.1,6.4,6.5h-36.6Z"/>
    <path class="st0" d="M3033.9,2000l7-22.1h88.4l-7.3,23.2c-1.3-1.8-2.4-3-3.3-3.7-4-2.9-10.4-4.3-19.2-4.3h-7.6v85.3c0,.9.2,2,.5,3.5.3,1.5.7,2.7,1.3,3.7.8,2,3,4.3,6.5,6.9h-37.2c3.2-2.5,5.2-4.8,6-6.8,1.2-2,1.7-4.4,1.7-7.2v-84.9l-8.4-.5h-4.7c-1.4,0-3.6.2-6.5.5-2.9.3-5.5.9-7.8,1.7-2.3.8-5.4,2.3-9.3,4.7Z"/>
    <path class="st2" d="M3202.4,2092.5c2.4-1.7,4.1-3.2,5.3-4.5,1.2-1.3,2.2-2.6,3-4.1,1.4-2.7,2.1-5.7,2.1-9v-108.9c0-3.5-.6-6.4-1.8-8.9-1.2-2.5-3.6-5.5-7.2-9.1h44.3c15.5,0,28,1.9,37.5,5.8,5.9,2.5,10.5,6.2,13.8,11,3.3,4.8,5,10.4,5,16.6s-2.5,13.6-7.4,18.5c-1.9,2-3.9,3.7-6.2,5-2.3,1.3-5.4,2.7-9.4,4,5.3.8,9.5,1.7,12.4,2.8,2.9,1.1,5.9,2.7,8.8,5,9.2,7,13.8,16.5,13.8,28.7s-.9,9.8-2.6,14.6c-1.7,4.8-4.2,9.2-7.4,13.2-6,7.1-13.6,12.1-22.9,14.9-9.2,2.9-22.1,4.3-38.7,4.3h-42.5ZM3238.7,1963.9v42.9c2.8.4,5,.6,6.5.6,11.4,0,19.5-2.1,24.2-6.2,4.7-4.4,7.1-9.7,7.1-15.8s-2.4-12.4-7.1-16.2c-4.7-3.9-11.4-5.8-20.2-5.8l-10.5.6ZM3238.7,2021.5v51.7c4.3,1.1,7.5,1.7,9.7,2,2.2.3,4.9.4,8.1.4,9.5,0,17.3-2.6,23.5-7.8,6.1-5.2,9.2-12,9.2-20.3s-1.6-10.8-4.8-15.1c-3.2-4.3-7.8-7.4-13.7-9-6-1.7-12.6-2.5-20-2.5l-12,.6Z"/>
    <path class="st2" d="M3326.4,2092.5c3-2.2,5-4.3,6.2-6.4,1.2-2,1.7-4.5,1.7-7.3v-86.3c0-2.4-.5-4.8-1.5-7.2-.7-1.1-1.3-2.1-2-3-.7-1-1.9-2.4-3.7-4.5h39.4c12.8,0,22.9,2.6,30.1,7.8,7.3,5.2,10.9,12.4,10.9,21.6s-2.4,13.2-7.3,18.1c-2.8,2.8-5.5,4.8-8.1,6-2.7,1.3-6.8,2.6-12.6,4l10.6,14.1c2.2,3,5.2,6.6,9.1,11,4.2,4.8,8.8,9.6,13.7,14.6,4.3,4.6,7.8,7.9,10.3,9.9,2.5,2.1,6.3,4.5,11.4,7.4h-25.7c-4.2,0-8.8-2.4-13.7-7.3-5.7-5.8-11.5-13-17.5-21.5-4-5.4-7.6-10.4-10.6-14.9-2.4-3.6-5.9-9.1-10.5-16.4,19.9-2.8,29.9-10.5,29.9-23.2s-8.4-17.8-25.3-17.8h-6.4v87.1c0,3.1.6,5.6,1.7,7.5,1.1,1.9,3.3,4.1,6.4,6.5h-36.6Z"/>
    <path class="st2" d="M3444.6,2092.5c2.4-1.4,4.2-2.5,5.2-3.3,1.1-.8,2.3-2,3.8-3.5.8-1,1.7-2.1,2.5-3.3s1.5-2.5,2.1-3.8l35.6-85.8c.7-2.2,1.1-4.3,1.1-6.2s-.2-2.4-.7-3.7c-.5-1.3-1.4-2.9-2.8-4.9h28.6l40,100.6c.8,2.5,2.3,4.9,4.5,7.2,1.1,1.1,2.2,2.1,3.6,3.2,1.3,1.1,3.2,2.3,5.5,3.7h-41.5c2.1-1.7,3.6-3.2,4.5-4.6.8-1.4,1.3-3,1.3-4.8s-.3-3-.8-4.6l-10.2-26.7h-40.9l-10.4,26.7c-.5,1.6-.7,3.2-.7,4.9,0,3.1,1.8,6.1,5.4,9.1h-35.8ZM3507,1997l-15.7,41.1h30.8l-15.1-41.1Z"/>
    <path class="st2" d="M3583.5,2065.3c3.7,2.5,6.6,4.3,8.8,5.4,2.2,1.1,5.1,2.3,8.7,3.5,3.6,1.2,6.9,2.1,10,2.7,3.1.6,6,.9,8.8.9,6.2,0,11.4-1.5,15.4-4.5,4-3,6.1-6.8,6.1-11.4s-.4-3.6-1.3-5.3c-.9-1.7-2.3-3.3-4.2-4.7-1.9-1.4-4.3-2.9-7-4.5-2.7-1.5-5.5-2.9-8.4-4l-13.5-5.7c-6.7-2.8-11.8-6.6-15.5-11.5-3.7-4.9-5.5-10.3-5.5-16.3,0-9.6,3.9-17.4,11.7-23.2,7.8-5.8,18.1-8.8,30.9-8.8h7.2c4.1.5,6.7.9,7.7,1.1,1,.2,3.5.8,7.5,1.9v20.7c-1.3-1.2-2.7-2.2-4-3.1-1.3-.9-2.6-1.8-3.8-2.6-4.7-2.9-10.2-4.3-16.6-4.3s-11,1.3-14.8,4c-3.8,2.7-5.7,6.1-5.7,10.3s1.5,6.7,4.4,9.3c2.9,2.6,8.1,5.5,15.6,8.7l13.1,5.4c3.6,1.6,7.3,4,11.2,6.9,7.5,5.9,11.2,12.9,11.2,21.3s-4.3,18.5-12.8,25.1c-8.5,6.6-19.4,9.9-32.6,9.9s-3.9,0-5.2-.2c-1.3-.1-3.5-.3-6.5-.7-3-.4-4.9-.6-5.8-.8-2.6-.5-5.5-1.3-8.9-2.5l-6.1-23Z"/>
    <path class="st2" d="M3671.3,2092.5c5.4-3.9,8.1-8.6,8.1-14v-86.1c0-3.3-.5-5.9-1.4-7.9-1-2-2.9-4.2-5.7-6.6h35.4c-2.6,2.2-4.5,4.5-5.6,6.7-1.1,2.2-1.6,4.8-1.6,7.8v86.1c0,5.3,2.7,10,8.1,14h-37.3Z"/>
    <path class="st2" d="M3718.6,2092.5c5.2-4.2,7.8-8.9,7.8-14v-86.1c0-3.2-.4-5.7-1.1-7.5-.7-1.9-2.4-4.2-4.9-6.9h34c-2.7,3.1-4.5,5.7-5.6,7.9-1.1,2.2-1.6,4.4-1.6,6.8v84.4c4.2.5,7.6.9,10.1,1.1,2.5.2,5.1.3,7.7.3h6.5c1.8-.3,3.1-.5,4-.6,6.3-.6,10.8-1.5,13.7-2.5,2.9-1.1,6.9-3.3,11.8-6.7l-8.3,24h-74.2Z"/>
  </g>
</svg>