<?xml version="1.0" encoding="UTF-8"?>
<svg xmlns="http://www.w3.org/2000/svg" xmlns:xlink="http://www.w3.org/1999/xlink" viewBox="0 0 1024 1024">
  <defs>
    <style>
      .cls-1 {
        fill: url(#Gradiente_sem_nome_124-3);
      }

      .cls-1, .cls-2, .cls-3, .cls-4, .cls-5, .cls-6, .cls-7, .cls-8, .cls-9, .cls-10, .cls-11, .cls-12, .cls-13, .cls-14 {
        stroke-width: 0px;
      }

      .cls-1, .cls-2, .cls-3, .cls-5, .cls-6, .cls-7, .cls-8, .cls-10, .cls-11, .cls-12, .cls-13 {
        mix-blend-mode: hard-light;
      }

      .cls-2 {
        fill: url(#Gradiente_sem_nome_124);
      }

      .cls-3 {
        fill: url(#Gradiente_sem_nome_124-9);
      }

      .cls-15 {
        isolation: isolate;
      }

      .cls-4 {
        fill: #8e8e8e;
      }

      .cls-5 {
        fill: url(#Gradiente_sem_nome_124-5);
      }

      .cls-6 {
        fill: url(#Gradiente_sem_nome_124-11);
      }

      .cls-7 {
        fill: url(#Gradiente_sem_nome_124-8);
      }

      .cls-8 {
        fill: url(#Gradiente_sem_nome_124-10);
      }

      .cls-9 {
        fill: #e1e1e6;
      }

      .cls-10 {
        fill: url(#Gradiente_sem_nome_124-6);
      }

      .cls-11 {
        fill: url(#Gradiente_sem_nome_124-4);
      }

      .cls-12 {
        fill: url(#Gradiente_sem_nome_124-7);
      }

      .cls-13 {
        fill: url(#Gradiente_sem_nome_124-2);
      }

      .cls-14 {
        fill: #939393;
      }
    </style>
    <linearGradient id="Gradiente_sem_nome_124" data-name="Gradiente sem nome 124" x1="300.11" y1="933.38" x2="511.79" y2="3.24" gradientUnits="userSpaceOnUse">
      <stop offset="0" stop-color="#144154"/>
      <stop offset=".32" stop-color="#144652"/>
      <stop offset=".7" stop-color="#145450"/>
      <stop offset=".71" stop-color="#145550"/>
    </linearGradient>
    <linearGradient id="Gradiente_sem_nome_124-2" data-name="Gradiente sem nome 124" x1="745.43" y1="1034.73" x2="957.11" y2="104.59" xlink:href="#Gradiente_sem_nome_124"/>
    <linearGradient id="Gradiente_sem_nome_124-3" data-name="Gradiente sem nome 124" x1="753.9" y1="1036.65" x2="965.58" y2="106.52" xlink:href="#Gradiente_sem_nome_124"/>
    <linearGradient id="Gradiente_sem_nome_124-4" data-name="Gradiente sem nome 124" x1="695.95" y1="1023.47" x2="907.62" y2="93.33" xlink:href="#Gradiente_sem_nome_124"/>
    <linearGradient id="Gradiente_sem_nome_124-5" data-name="Gradiente sem nome 124" x1="695.57" y1="1023.38" x2="907.25" y2="93.24" xlink:href="#Gradiente_sem_nome_124"/>
    <linearGradient id="Gradiente_sem_nome_124-6" data-name="Gradiente sem nome 124" x1="284.2" y1="929.76" x2="495.88" y2="-.38" xlink:href="#Gradiente_sem_nome_124"/>
    <linearGradient id="Gradiente_sem_nome_124-7" data-name="Gradiente sem nome 124" x1="521.07" y1="983.67" x2="732.75" y2="53.53" xlink:href="#Gradiente_sem_nome_124"/>
    <linearGradient id="Gradiente_sem_nome_124-8" data-name="Gradiente sem nome 124" x1="232.5" y1="917.99" x2="444.17" y2="-12.14" xlink:href="#Gradiente_sem_nome_124"/>
    <linearGradient id="Gradiente_sem_nome_124-9" data-name="Gradiente sem nome 124" x1="428.09" y1="962.51" x2="639.76" y2="32.37" xlink:href="#Gradiente_sem_nome_124"/>
    <linearGradient id="Gradiente_sem_nome_124-10" data-name="Gradiente sem nome 124" x1="329.45" y1="940.06" x2="541.13" y2="9.92" xlink:href="#Gradiente_sem_nome_124"/>
    <linearGradient id="Gradiente_sem_nome_124-11" data-name="Gradiente sem nome 124" x1="630.73" y1="1008.62" x2="842.41" y2="78.49" xlink:href="#Gradiente_sem_nome_124"/>
  </defs>
  <g class="cls-15">
    <g id="Camada_1" data-name="Camada 1">
      <g>
        <rect class="cls-9" x="-.27" y=".54" width="1024.54" height="1022.92" rx="69.34" ry="69.34"/>
        <g>
          <path class="cls-14" d="M660.07,811.49c.38-1.74-1.35-3.18-2.98-2.47-14,6.1-64.56,25.72-135.73,25.72-171.3-5.19-309.43-145.57-311.4-316.93-2.05-178.9,142.38-326.14,320.82-324.6,151.21,0,225.71,92.38,243.53,110.18,1.8,1.62,4.66.7,5.2-1.66l33.3-144.28c.67-2.89-.37-5.9-2.69-7.75-20.95-16.67-127.57-95.08-279.33-95.08-252.64,0-459.64,206.79-459.64,459.43s207,457.45,459.64,457.45c43.68,0,78.57-7.42,91.48-10.59,3.3-.81,5.83-3.42,6.56-6.74l31.26-142.67Z"/>
          <path class="cls-2" d="M660.07,811.49c.38-1.74-1.35-3.18-2.98-2.47-14,6.1-64.56,25.72-135.73,25.72-171.3-5.19-309.43-145.57-311.4-316.93-2.05-178.9,142.38-326.14,320.82-324.6,151.21,0,225.71,92.38,243.53,110.18,1.8,1.62,4.66.7,5.2-1.66l33.3-144.28c.67-2.89-.37-5.9-2.69-7.75-20.95-16.67-127.57-95.08-279.33-95.08-252.64,0-459.64,206.79-459.64,459.43s207,457.45,459.64,457.45c43.68,0,78.57-7.42,91.48-10.59,3.3-.81,5.83-3.42,6.56-6.74l31.26-142.67Z"/>
          <path class="cls-14" d="M790.17,702.9c-44.68,55.3-81.72,77.43-93.51,84.39-2.37,1.4-4.06,3.7-4.67,6.39l-34.98,152.52c-.72,3.14,2.14,5.94,5.26,5.13,31.23-8.11,162.97-49.46,251.85-187.56,27.55-42.81-103.05-86.73-123.94-60.87Z"/>
          <path class="cls-13" d="M790.17,702.9c-44.68,55.3-81.72,77.43-93.51,84.39-2.37,1.4-4.06,3.7-4.67,6.39l-34.98,152.52c-.72,3.14,2.14,5.94,5.26,5.13,31.23-8.11,162.97-49.46,251.85-187.56,27.55-42.81-103.05-86.73-123.94-60.87Z"/>
          <path class="cls-14" d="M652.83,962.45l-6.4,29.11s162.85-28.42,271.26-173.23c18.79-25.09-.82-45.77-.82-45.77-99.03,153.97-264.05,189.89-264.05,189.89Z"/>
          <path class="cls-1" d="M652.83,962.45l-6.4,29.11s162.85-28.42,271.26-173.23c18.79-25.09-.82-45.77-.82-45.77-99.03,153.97-264.05,189.89-264.05,189.89Z"/>
          <path class="cls-14" d="M915.66,262.77c-20.61-31.38-46.05-61.4-75.86-88.38-1.33-1.21-3.49-.53-3.89,1.22l-34.93,150.41c-.41,1.78.68,3.58,2.46,4,16.48,3.88,44.21-1.11,68.43-11.08,31.81-13.09,57.55-34.76,43.79-56.18Z"/>
          <path class="cls-11" d="M915.66,262.77c-20.61-31.38-46.05-61.4-75.86-88.38-1.33-1.21-3.49-.53-3.89,1.22l-34.93,150.41c-.41,1.78.68,3.58,2.46,4,16.48,3.88,44.21-1.11,68.43-11.08,31.81-13.09,57.55-34.76,43.79-56.18Z"/>
          <path class="cls-14" d="M849.15,133.95c-1.35-1.15-3.44-.46-3.86,1.26l-6.09,25.18c-.43,1.76.16,3.6,1.52,4.8,28.03,24.82,53.03,52.97,74.32,83.81,1.78,2.58,5.57,2.48,7.23-.17,4.98-7.97,11.51-24.17-2.34-41.53-21.23-26.63-44.85-51.28-70.78-73.35Z"/>
          <path class="cls-5" d="M849.15,133.95c-1.35-1.15-3.44-.46-3.86,1.26l-6.09,25.18c-.43,1.76.16,3.6,1.52,4.8,28.03,24.82,53.03,52.97,74.32,83.81,1.78,2.58,5.57,2.48,7.23-.17,4.98-7.97,11.51-24.17-2.34-41.53-21.23-26.63-44.85-51.28-70.78-73.35Z"/>
          <path class="cls-14" d="M619.34,972.14c-10.45,2.03-39.69,6.42-96.95,6.42-255.04-4.49-459.72-216.07-456.17-471.13,3.53-253.55,210.17-458.23,464.55-457.99,161.21,0,268.29,87.07,283,96.9.99.66,2.32.12,2.59-1.04l7.33-29.06c.28-1.21-.22-2.46-1.26-3.14-13.94-8.96-121.85-94.62-291.31-94.62C256.41,18.5,37.8,239.37,37.8,511.82s220.87,493.32,493.32,493.32c41.11,0,67.45-3.84,79.32-6.09,4.43-.84,7.93-4.19,8.96-8.58l3.44-14.67c.5-2.13-1.35-4.07-3.49-3.66Z"/>
          <path class="cls-10" d="M619.34,972.14c-10.45,2.03-39.69,6.42-96.95,6.42-255.04-4.49-459.72-216.07-456.17-471.13,3.53-253.55,210.17-458.23,464.55-457.99,161.21,0,268.29,87.07,283,96.9.99.66,2.32.12,2.59-1.04l7.33-29.06c.28-1.21-.22-2.46-1.26-3.14-13.94-8.96-121.85-94.62-291.31-94.62C256.41,18.5,37.8,239.37,37.8,511.82s220.87,493.32,493.32,493.32c41.11,0,67.45-3.84,79.32-6.09,4.43-.84,7.93-4.19,8.96-8.58l3.44-14.67c.5-2.13-1.35-4.07-3.49-3.66Z"/>
          <path class="cls-4" d="M575.09,785.8c3.28-2.18,4.01-7.53,4.01-7.53l111.35-477.46s2.81-10.7.81-14.1c-.35-.68-16.93-11.59-18.39-12.12-2.66,3.93,8.28,9.78,9.75,18.73.83,5.05-1.59,14.9-2.49,20.24,0,0-105.56,452.61-106.52,456.77-.79,3.43-2.08,6.43-5.36,8.37-3.49,2.06-17.31,5.2-16.63,9.9,1.55.17,22.85-2.33,23.46-2.79Z"/>
          <path class="cls-12" d="M575.09,785.8c3.28-2.18,4.01-7.53,4.01-7.53l111.35-477.46s2.81-10.7.81-14.1c-.35-.68-16.93-11.59-18.39-12.12-2.66,3.93,8.28,9.78,9.75,18.73.83,5.05-1.59,14.9-2.49,20.24,0,0-105.56,452.61-106.52,456.77-.79,3.43-2.08,6.43-5.36,8.37-3.49,2.06-17.31,5.2-16.63,9.9,1.55.17,22.85-2.33,23.46-2.79Z"/>
          <path class="cls-4" d="M373.62,298.26c.58-2.11,1.25-4.56,1.83-6.67,1.25-5.55,15.93-16,12.77-19.54-1.18.61-13.86,8.56-17.74,11.33-.7.5-1.2,1.24-1.41,2.07-1.51,5.91-2.56,10.66-3.48,15.77l-75.7,324.29c-2.4,9.24-3.02,11.47-4.35,17.83-.18.86-.05,1.76.37,2.54,2.28,4.23,10.13,16.89,10.92,17.95,4.39-1.8-3.72-18.64-2.46-26.05l79.25-339.52Z"/>
          <path class="cls-7" d="M373.62,298.26c.58-2.11,1.25-4.56,1.83-6.67,1.25-5.55,15.93-16,12.77-19.54-1.18.61-13.86,8.56-17.74,11.33-.7.5-1.2,1.24-1.41,2.07-1.51,5.91-2.56,10.66-3.48,15.77l-75.7,324.29c-2.4,9.24-3.02,11.47-4.35,17.83-.18.86-.05,1.76.37,2.54,2.28,4.23,10.13,16.89,10.92,17.95,4.39-1.8-3.72-18.64-2.46-26.05l79.25-339.52Z"/>
          <path class="cls-4" d="M593.04,264.29c.56-2.46,2.32-7.34,3.04-8.54,3.94-8.75,17.18-6.91,15.84-11.3-4.81-1.61-31.76-5.39-36.03-5.39-2.76,3.66,9.82,5.95,10.56,14.99.81,4.88-.23,7.96-.42,8.8-.2.84-115.2,493.64-115.68,495.58-.78,2.78-2.33,6.04-3.81,8.74-4.72,7.74-17.54,4.43-16.54,9.07,2.33.94,13.2,4.99,17.99,6.44,6.76,2.15,15.38,4.58,15.57,4.34,3.48-3.23-8.39-7.93-7.82-16.98.39-3.02.83-6.89,1.47-9.52,0,0,115.62-495.65,115.84-496.25Z"/>
          <path class="cls-3" d="M593.04,264.29c.56-2.46,2.32-7.34,3.04-8.54,3.94-8.75,17.18-6.91,15.84-11.3-4.81-1.61-31.76-5.39-36.03-5.39-2.76,3.66,9.82,5.95,10.56,14.99.81,4.88-.23,7.96-.42,8.8-.2.84-115.2,493.64-115.68,495.58-.78,2.78-2.33,6.04-3.81,8.74-4.72,7.74-17.54,4.43-16.54,9.07,2.33.94,13.2,4.99,17.99,6.44,6.76,2.15,15.38,4.58,15.57,4.34,3.48-3.23-8.39-7.93-7.82-16.98.39-3.02.83-6.89,1.47-9.52,0,0,115.62-495.65,115.84-496.25Z"/>
          <path class="cls-4" d="M381.67,717.27l107.91-461.05c4.62-18.04,21.27-13.7,19.82-21.04-10.45,1.16-33.21,6.05-37.5,7.12-1.18,4.8,6.07,5.62,8.23,12.41.59,1.86.69,4.1.47,5.9,0,0-103.91,446.92-105.8,454.95-3.89,16.58-16.52,6.83-17.04,12.82,3.37,2.87,19.53,14.89,31.59,21.88,4.57-5.93-12.79-9.16-8.92-27.38.12-.56,1.07-4.86,1.24-5.62Z"/>
          <path class="cls-8" d="M381.67,717.27l107.91-461.05c4.62-18.04,21.27-13.7,19.82-21.04-10.45,1.16-33.21,6.05-37.5,7.12-1.18,4.8,6.07,5.62,8.23,12.41.59,1.86.69,4.1.47,5.9,0,0-103.91,446.92-105.8,454.95-3.89,16.58-16.52,6.83-17.04,12.82,3.37,2.87,19.53,14.89,31.59,21.88,4.57-5.93-12.79-9.16-8.92-27.38.12-.56,1.07-4.86,1.24-5.62Z"/>
          <path class="cls-4" d="M832.91,121.01c-.4-.27-.94-.04-1.05.43l-202.88,866.09s-1.92,8.92-1.92,9.23c0,.15,5.67-.91,6.2-1.22,1.37-.53,1.61-1.82,1.71-2.24L838.07,126.33c.35-1.49-3.43-4.18-5.15-5.31Z"/>
          <path class="cls-6" d="M832.91,121.01c-.4-.27-.94-.04-1.05.43l-202.88,866.09s-1.92,8.92-1.92,9.23c0,.15,5.67-.91,6.2-1.22,1.37-.53,1.61-1.82,1.71-2.24L838.07,126.33c.35-1.49-3.43-4.18-5.15-5.31Z"/>
        </g>
      </g>
    </g>
  </g>
</svg>