<?xml version="1.0" encoding="UTF-8"?>
<svg id="Camada_1" data-name="Camada 1" xmlns="http://www.w3.org/2000/svg" xmlns:xlink="http://www.w3.org/1999/xlink" viewBox="0 0 1024 1024">
  <defs>
    <style>
      .cls-1 {
        fill: url(#Gradiente_sem_nome_125);
      }

      .cls-1, .cls-2 {
        stroke-width: 0px;
      }

      .cls-2 {
        fill: #e1e1e6;
      }
    </style>
    <linearGradient id="Gradiente_sem_nome_125" data-name="Gradiente sem nome 125" x1="403.71" y1="987.83" x2="631.27" y2="-12.07" gradientUnits="userSpaceOnUse">
      <stop offset="0" stop-color="#144154"/>
      <stop offset=".31" stop-color="#144553"/>
      <stop offset=".64" stop-color="#145250"/>
      <stop offset=".69" stop-color="#145550"/>
    </linearGradient>
  </defs>
  <rect class="cls-1" x=".54" y=".54" width="1022.92" height="1022.92" rx="69.3" ry="69.3"/>
  <g>
    <path class="cls-2" d="M663.9,797.61c.36-1.66-1.29-3.04-2.85-2.36-13.38,5.83-61.69,24.57-129.68,24.57-163.67-4.96-295.65-139.09-297.53-302.82-1.96-170.93,136.03-311.61,306.53-310.14,144.48,0,215.65,88.27,232.68,105.28,1.72,1.55,4.45.66,4.97-1.59l31.81-137.85c.64-2.76-.35-5.64-2.57-7.41-20.01-15.92-121.89-90.85-266.89-90.85-241.39,0-439.17,197.58-439.17,438.97s197.78,437.08,439.17,437.08c41.73,0,75.07-7.09,87.4-10.12,3.15-.77,5.57-3.27,6.27-6.44l29.86-136.31Z"/>
    <path class="cls-2" d="M660.97,926.32c-.69,3,2.04,5.68,5.03,4.9,29.84-7.75,155.72-47.25,240.63-179.21,26.32-40.9-98.46-82.87-118.42-58.16-42.69,52.84-78.08,73.98-89.35,80.64-2.27,1.34-3.88,3.54-4.47,6.11l-33.42,145.73Z"/>
    <path class="cls-2" d="M650.86,969.64s155.59-27.16,259.18-165.51c17.95-23.97-.78-43.73-.78-43.73-94.62,147.11-252.29,181.44-252.29,181.44l-6.12,27.81Z"/>
    <path class="cls-2" d="M831.92,190.05c.39-1.67,2.45-2.32,3.72-1.17,28.47,25.78,52.78,54.46,72.48,84.44,13.14,20.46-11.46,41.16-41.84,53.67-23.14,9.52-49.64,14.3-65.38,10.59-1.7-.4-2.74-2.12-2.35-3.83l33.38-143.71Z"/>
    <path class="cls-2" d="M836.5,180.09c26.79,23.72,50.67,50.61,71.01,80.08,1.7,2.46,5.32,2.37,6.91-.17,4.76-7.61,11-23.09-2.23-39.68-20.29-25.44-42.85-48.99-67.63-70.08-1.29-1.1-3.29-.44-3.69,1.21l-5.82,24.06c-.41,1.68.15,3.44,1.45,4.59Z"/>
    <path class="cls-2" d="M628.33,954.6c.48-2.04-1.29-3.89-3.34-3.49-9.99,1.94-37.92,6.14-92.63,6.14-243.68-4.29-439.25-206.45-435.85-450.15,3.38-242.26,200.81-437.83,443.86-437.59,154.03,0,256.34,83.19,270.4,92.59.94.63,2.21.11,2.47-.99l7-27.77c.27-1.16-.21-2.35-1.2-3-13.32-8.56-116.42-90.4-278.34-90.4-262.48,0-471.35,211.03-471.35,471.35s211.03,471.35,471.35,471.35c39.28,0,64.45-3.67,75.79-5.81,4.23-.8,7.58-4.01,8.56-8.2l3.29-14.02Z"/>
  </g>
  <g>
    <path class="cls-2" d="M693.71,296.2c-.33-.65-16.18-11.08-17.57-11.58-2.55,3.76,7.91,9.35,9.32,17.89.8,4.83-1.52,14.24-2.38,19.34l-101.77,436.42c-.76,1.47-.5,2.9-4.78,7.64-5.81,6.43-16.87,5.32-16.22,9.81,1.48.16,21.84-2.23,22.42-2.66,3.13-2.09,3.83-7.19,3.83-7.19l106.39-456.2s2.68-10.23.78-13.47Z"/>
    <path class="cls-2" d="M404.16,282.19c-1.32.68-17.77,11.01-18.01,11.7-1.46,3.46-3.61,16.16-3.61,16.17l-72.33,309.85s-4.19,14.42-4.4,18.18c-.08.72,10.14,17.24,11.03,18.43,4.2-1.72-4.26-19.67-2.74-22.14.11-.56.24-1.56.39-2.75l75.72-324.4,1.74-6.37c1.2-5.3,15.22-15.28,12.2-18.67Z"/>
    <path class="cls-2" d="M617.89,255.82c-4.6-1.54-30.35-5.15-34.42-5.15-2.64,3.49,9.39,5.69,10.09,14.32.78,4.66-.22,7.61-.4,8.41s-110.53,473.51-110.53,473.51c0,0-.29,1.34-3.99,8.28-4.51,7.4-16.41,4.31-15.46,8.74,2.22.9,12.61,4.76,17.19,6.16,6.46,2.05,14.69,4.37,14.88,4.14,3.32-3.09-8.02-7.58-7.48-16.22.95-7.81,1.4-9.1,1.4-9.1,0,0,110.47-473.58,110.68-474.14.53-2.35,2.22-7.02,2.91-8.16,3.76-8.36,16.41-6.6,15.13-10.79Z"/>
    <path class="cls-2" d="M519.94,246.95c-9.99,1.1-31.73,5.78-35.83,6.8-2.11,5.35,10.08,5.57,8.32,17.5l-101.08,434.69c-3.72,11.47-15.79,6.52-16.28,12.25,3.22,2.74,18.66,14.22,30.18,20.91,4.36-5.67-12.22-8.75-8.52-26.16l1.18-5.37,103.1-440.52c4.42-17.23,20.33-13.09,18.94-20.11Z"/>
  </g>
  <path class="cls-2" d="M829.05,137.88c-.39-.25-.9-.04-1,.41l-193.84,827.52s-1.84,8.52-1.84,8.82c0,.14,5.42-.86,5.93-1.16,1.31-.51,1.54-1.73,1.64-2.14l194.04-828.37c.33-1.42-3.28-3.99-4.92-5.08Z"/>
</svg>