<svg height="195" viewBox="0 0 394.91 195" width="394.910004" xmlns="http://www.w3.org/2000/svg" xmlns:xlink="http://www.w3.org/1999/xlink"><linearGradient id="a" gradientUnits="userSpaceOnUse" x1="208.13" x2="394.91" y1="127.28" y2="127.28"><stop offset="0" stop-color="#e66421"/><stop offset=".57" stop-color="#590c2f"/><stop offset="1" stop-color="#165550"/></linearGradient><linearGradient id="b" gradientUnits="userSpaceOnUse" x1="0" x2="200.69" y1="124.6" y2="124.6"><stop offset="0" stop-color="#165550"/><stop offset=".54" stop-color="#e6b427"/><stop offset="1" stop-color="#e66421"/></linearGradient><g fill="#010101"><path d="m243.08 100.83h148.61v4.17h-148.61z" fill-rule="evenodd"/><path d="m222.93 129.14h168.76v4.06h-168.76z" fill-rule="evenodd"/><path d="m228.63 115.04h163.06v4.06h-163.06z" fill-rule="evenodd"/><path d="m391.69 143.24v4.17h-178.46s.05-.07.08-.11c1.29-.63 2.23-1.85 2.47-3.31 0 0 .37-.5.55-.75h175.35z" fill-rule="evenodd"/><path d="m391.69 157.45v4.06h-189.13c.94-1.23 1.89-2.48 2.85-3.73l.15-.33z" fill-rule="evenodd"/><path d="m2.05 157.45h93.81v4.06h-93.81z"/><path d="m104.88 157.45h46.48v4.06h-46.48z"/><path d="m151.01 138.38c.12.07.23.13.35.2v19.12c-.08-.08-.17-.16-.25-.24-.03-.03-.06-.06-.09-.09-3.33-3.22-6.78-6.57-10.27-9.95-.33-.32-.65-.63-.98-.95.66.38 1.42.6 2.23.6 2.24 0 4.1-1.65 4.44-3.81.04-.23.06-.48.06-.72v-6.85c1.51.94 3.02 1.84 4.52 2.71z" fill-rule="evenodd"/><path d="m138.16 144.91c-.57-.56-1.15-1.11-1.72-1.67-1.27-1.24-2.55-2.48-3.82-3.71v-13.46c1.5 1.15 3.06 2.31 4.67 3.46.07.05.13.09.2.14v12.85c0 .24.02.49.06.72.1.6.31 1.17.62 1.67z" fill-rule="evenodd"/><path d="m95.86 76.42v27.3c-1.11-1.08-2.1-2.05-2.96-2.89-2.4-2.34-3.76-3.67-3.76-3.67l6.72-20.73z" fill-rule="evenodd"/><path d="m2.11 115.04h93.75v4.06h-93.75z"/><path d="m104.88 115.04h11.81v4.06h-11.81z"/><path d="m217.12 161.51s-13.35 0-13.35 0l1.01-2.29.64-1.44.15-.33h11.42v2.46c0 .53.04 1.1.14 1.6z" fill-rule="evenodd"/><path d="m2.11 143.24h93.75v4.17h-93.75z"/><path d="m140.74 147.41h-35.86v-4.17h31.57s3.97 3.85 4.29 4.17z" fill-rule="evenodd"/><path d="m2.11 129.14h93.75v4.06h-93.75z"/><path d="m104.88 129.14h18.74v4.06h-18.74z"/><path d="m2.09 100.83h93.77v4.17h-93.77z"/><path d="m104.88 100.83h3.05v4.17h-3.05z"/><path d="m205.55 157.45-.15.33c.08-.11.17-.22.25-.33z" fill-rule="evenodd"/></g><path d="m336.19 113.96c-1.56 0-2.87 1.13-3.16 2.62-.05.21-.06.43-.06.64v16.54c0 1.8 1.45 3.27 3.22 3.27s3.22-1.47 3.22-3.27v-16.54c0-.21-.02-.43-.06-.64-.29-1.49-1.59-2.62-3.16-2.62zm41.62-1.27c-1.78 0-3.22 1.47-3.22 3.27v20.08c0 1.8 1.43 3.27 3.22 3.27s3.22-1.47 3.22-3.27v-20.08c0-1.8-1.45-3.27-3.22-3.27zm-13.88-24.51c-1.77 0-3.22 1.45-3.22 3.25v68.42c0 .41.08.79.21 1.14.46 1.24 1.63 2.11 3.01 2.11s2.56-.87 3.02-2.11c.14-.35.21-.73.21-1.14v-68.42c0-1.8-1.45-3.25-3.23-3.25zm-13.86 18.85c-1.78 0-3.23 1.45-3.23 3.25v30.79c0 1.78 1.45 3.25 3.23 3.25s3.22-1.46 3.22-3.25v-30.79c0-1.8-1.45-3.25-3.22-3.25zm-27.75 12.82c-1.78 0-3.23 1.47-3.23 3.25v5.1c0 1.02.46 1.92 1.19 2.53.55.44 1.28.72 2.04.72s1.48-.27 2.03-.72c.73-.61 1.19-1.51 1.19-2.53v-5.1c0-1.78-1.45-3.25-3.22-3.25zm-13.88-2.52s0 0 0 0zm0 0c-1.02 0-1.92.47-2.5 1.22-.44.55-.72 1.27-.72 2.05v10.18c0 .72.23 1.39.62 1.92.58.82 1.53 1.34 2.59 1.34s2-.52 2.59-1.34c.4-.53.62-1.21.62-1.92v-10.18c0-.78-.27-1.49-.7-2.05-.61-.75-1.51-1.22-2.52-1.22zm85.76 1.22c-.61-.75-1.51-1.22-2.52-1.22-1.02 0-1.92.47-2.5 1.22-.44.55-.72 1.27-.72 2.05v10.18c0 .72.23 1.39.62 1.92.58.82 1.53 1.34 2.59 1.34s2-.52 2.59-1.34c.4-.53.62-1.21.62-1.92v-10.18c0-.78-.27-1.49-.7-2.05zm-2.51-1.22s0 0 0 0zm-97.13-6.94c-1.77 0-3.22 1.46-3.22 3.26v24.63c0 1.78 1.45 3.25 3.22 3.25s3.23-1.47 3.23-3.25v-24.63c0-1.8-1.45-3.26-3.23-3.26zm-13.87-15.91c-1.78 0-3.23 1.45-3.23 3.25v56.02c0 1.8 1.45 3.25 3.23 3.25s3.22-1.45 3.22-3.25v-56.02c0-1.8-1.45-3.25-3.22-3.25zm-55.49-6.39c-1.78 0-3.22 1.44-3.22 3.22v69.28c0 1.78 1.44 3.22 3.22 3.22s3.22-1.44 3.22-3.22v-69.28c0-1.78-1.44-3.22-3.22-3.22zm13.87 20.48c-1.78 0-3.22 1.44-3.22 3.22v34.7c0 1.78 1.44 3.22 3.22 3.22s3.22-1.44 3.22-3.22v-34.7c0-1.78-1.44-3.22-3.22-3.22zm13.87 4.67c-1.78 0-3.23 1.44-3.23 3.23v18.76c0 1.78 1.44 3.23 3.23 3.23s3.23-1.44 3.23-3.23v-18.76c0-1.78-1.44-3.23-3.23-3.23zm13.84-25.15c-1.78 0-3.22 1.44-3.22 3.22v71.93c0 1.78 1.44 3.22 3.22 3.22s3.22-1.44 3.22-3.22v-71.93c0-1.78-1.44-3.22-3.22-3.22zm-55.44 25.61c-1.78 0-3.21 1.44-3.21 3.21v17.39c0 1.78 1.44 3.21 3.21 3.21s3.21-1.44 3.21-3.21v-17.39c0-1.78-1.44-3.21-3.21-3.21z" fill="url(#a)" fill-rule="evenodd"/><path d="m204.04 194.34c.44-.35.74-.66.89-.91.13-.28.2-.6.2-.96v-11.52c0-.28 0-.46-.02-.54-.01-.08-.06-.2-.14-.36s-.17-.32-.28-.47-.27-.34-.48-.56h3.34l8.59 10.86v-8.93c0-.37-.05-.66-.14-.86-.09-.21-.18-.37-.27-.49s-.25-.32-.49-.58h3.89c-.35.42-.59.76-.7 1.01s-.17.56-.17.92v14.06c-.4-.08-.66-.16-.8-.21-.14-.06-.41-.22-.82-.49-.24-.16-.45-.3-.62-.42s-.37-.31-.61-.54c-.23-.23-.53-.58-.88-1.03-.1-.1-.19-.21-.28-.32-.14-.17-.24-.3-.3-.38l-6.74-8.42v9.33c0 .31.07.61.21.89s.45.6.91.94h-4.32z" fill="#010101"/><path d="m221.07 194.48c.35-.28.58-.53.69-.73.03-.1.07-.23.1-.37.03-.15.05-.28.05-.39v-9.2c0-.32-.04-.57-.12-.75s-.27-.45-.58-.8h7.13v2.55c-.42-.62-.88-.93-1.4-.93h-2.77v3.29h3.09v2.16c-.23-.26-.46-.44-.71-.54s-.59-.15-1.03-.15h-1.35v4.21c.47.07.84.11 1.09.14.25.02.55.03.89.03h.91c.62-.06 1.11-.16 1.47-.3s.81-.4 1.34-.77l-.88 2.56h-7.93z" fill="#010101"/><path d="m230.46 182.23h3.14l3.31 9.51 2.73-7.97.04-.22c0-.45-.32-.89-.95-1.32h2.79l3.36 9.76 2.84-8.21c.04-.12.06-.26.06-.41 0-.23-.04-.4-.12-.53-.08-.12-.28-.33-.59-.61h3.06l-4.64 12.77-.24-.08c-.16-.07-.31-.13-.46-.19s-.29-.12-.44-.2c-.32-.16-.59-.36-.81-.59-.23-.24-.39-.5-.49-.8l-.27-.83-2.21-5.91-3.04 8.52c-.35-.12-.61-.23-.77-.31s-.35-.2-.57-.33c-.53-.34-.87-.71-1-1.1l-.22-.59-3.31-8.8c-.1-.28-.24-.54-.41-.76-.07-.09-.18-.21-.33-.36s-.3-.29-.45-.42z" fill="#010101"/><path d="m257.87 194.48c.4-.3.68-.6.86-.89.17-.29.26-.62.26-1v-11.6c0-.43-.06-.76-.17-1.01-.11-.24-.38-.56-.79-.94h4.71c-.34.36-.58.68-.72.98-.15.3-.22.62-.22.96v4.15h7.49v-4.15c0-.39-.06-.71-.19-.98s-.38-.59-.75-.96h4.73c-.4.39-.66.71-.79.96s-.19.59-.19.98v11.6c0 .4.08.74.24 1.01s.45.56.88.88h-4.99c.23-.17.4-.32.51-.45s.24-.31.36-.54c.13-.23.19-.53.19-.9v-5.5h-7.49v5.5c0 .39.08.72.23.99s.43.57.84.9h-4.99z" fill="#010101"/><path d="m274.69 194.48c.35-.28.58-.53.69-.73.03-.1.07-.23.1-.37.03-.15.05-.28.05-.39v-9.2c0-.32-.04-.57-.12-.75s-.27-.45-.58-.8h7.13v2.55c-.42-.62-.88-.93-1.4-.93h-2.77v3.29h3.09v2.16c-.23-.26-.46-.44-.71-.54s-.59-.15-1.03-.15h-1.35v4.21c.47.07.84.11 1.09.14.25.02.55.03.89.03h.91c.62-.06 1.11-.16 1.47-.3s.81-.4 1.34-.77l-.88 2.56h-7.93z" fill="#010101"/><path d="m284.03 194.48c.26-.15.45-.27.56-.36s.25-.21.41-.37c.09-.1.18-.22.26-.36s.16-.27.23-.41l3.8-9.17c.08-.24.12-.46.12-.66 0-.12-.03-.25-.08-.39s-.15-.31-.3-.53h3.06l4.28 10.75c.09.27.25.53.48.76.11.11.24.23.38.34s.34.24.59.39h-4.43c.23-.18.38-.35.48-.49.09-.15.14-.32.14-.51 0-.16-.03-.32-.08-.49l-1.09-2.85h-4.37l-1.11 2.85c-.05.17-.08.35-.08.53 0 .33.19.65.58.97h-3.82zm6.67-10.2-1.67 4.39h3.29z" fill="#010101"/><path d="m299.3 194.48c.32-.24.54-.46.66-.68s.19-.48.19-.78v-9.22c0-.26-.05-.51-.16-.76-.07-.11-.14-.22-.21-.32s-.2-.26-.39-.48h4.21c1.37 0 2.44.28 3.22.83s1.16 1.32 1.16 2.31c0 .77-.26 1.42-.78 1.94-.29.29-.58.51-.87.65-.28.14-.73.28-1.34.42l1.14 1.51c.24.32.56.71.97 1.17.45.51.94 1.03 1.46 1.56.46.49.83.84 1.1 1.06s.67.48 1.21.79h-2.75c-.45 0-.94-.26-1.46-.78-.61-.62-1.23-1.39-1.87-2.29-.43-.58-.81-1.11-1.14-1.6-.26-.38-.63-.97-1.12-1.75 2.13-.29 3.19-1.12 3.19-2.48 0-1.27-.9-1.9-2.7-1.9h-.68v9.3c0 .33.06.6.18.8s.35.44.69.7z" fill="#010101"/><path d="m311.4 184.59.75-2.36h9.44l-.78 2.48c-.14-.19-.25-.32-.36-.39-.43-.31-1.12-.46-2.05-.46h-.82v9.11c0 .09.02.22.05.38s.08.29.14.39c.09.22.32.46.7.73h-3.97c.34-.27.55-.51.65-.73.12-.21.19-.47.19-.76v-9.07l-.9-.05h-.5c-.15 0-.38.02-.7.05-.31.04-.59.09-.83.18-.24.08-.57.25-.99.5z" fill="#010101"/><path d="m329.4 194.48c.25-.19.44-.35.57-.48.13-.14.23-.28.32-.44.15-.29.22-.61.22-.96v-11.64c0-.37-.06-.69-.19-.95s-.39-.59-.77-.98h4.74c1.66 0 2.99.21 4.01.62.63.27 1.12.66 1.48 1.18.36.51.54 1.11.54 1.78 0 .8-.26 1.46-.79 1.97-.2.21-.42.39-.66.54-.24.14-.58.29-1.01.43.57.09 1.01.19 1.33.3.31.11.63.29.94.54.99.74 1.48 1.76 1.48 3.06 0 .53-.09 1.05-.28 1.56s-.45.99-.79 1.41c-.64.76-1.46 1.29-2.44 1.6-.99.31-2.36.46-4.14.46h-4.54zm3.88-13.74v4.59c.3.04.53.06.69.06 1.22 0 2.08-.22 2.59-.66.5-.47.75-1.04.75-1.69 0-.74-.25-1.32-.75-1.74-.5-.41-1.22-.62-2.15-.62l-1.12.06zm0 6.15v5.53c.46.11.8.19 1.04.21.24.03.53.04.87.04 1.01 0 1.85-.28 2.51-.84s.99-1.28.99-2.16c0-.61-.17-1.15-.51-1.62-.34-.46-.83-.79-1.47-.96-.64-.18-1.35-.27-2.13-.27l-1.29.06z" fill="#010101"/><path d="m342.65 194.48c.32-.24.54-.46.66-.68s.19-.48.19-.78v-9.22c0-.26-.05-.51-.16-.76-.07-.11-.14-.22-.21-.32s-.2-.26-.39-.48h4.21c1.37 0 2.44.28 3.22.83s1.16 1.32 1.16 2.31c0 .77-.26 1.42-.78 1.94-.29.29-.58.51-.87.65-.28.14-.73.28-1.34.42l1.14 1.51c.24.32.56.71.97 1.17.45.51.94 1.03 1.46 1.56.46.49.83.84 1.1 1.06s.67.48 1.21.79h-2.75c-.45 0-.94-.26-1.46-.78-.61-.62-1.23-1.39-1.87-2.29-.43-.58-.81-1.11-1.14-1.6-.26-.38-.63-.97-1.12-1.75 2.13-.29 3.19-1.12 3.19-2.48 0-1.27-.9-1.9-2.7-1.9h-.68v9.3c0 .33.06.6.18.8s.35.44.69.7z" fill="#010101"/><path d="m355.27 194.48c.26-.15.45-.27.56-.36s.25-.21.41-.37c.09-.1.18-.22.26-.36s.16-.27.23-.41l3.8-9.17c.08-.24.12-.46.12-.66 0-.12-.03-.25-.08-.39s-.15-.31-.3-.53h3.06l4.28 10.75c.09.27.25.53.48.76.11.11.24.23.38.34s.34.24.59.39h-4.43c.23-.18.38-.35.48-.49.09-.15.14-.32.14-.51 0-.16-.03-.32-.08-.49l-1.09-2.85h-4.37l-1.11 2.85c-.05.17-.08.35-.08.53 0 .33.19.65.58.97h-3.82zm6.67-10.2-1.67 4.39h3.29z" fill="#010101"/><path d="m370.12 191.57c.39.26.71.45.94.57.24.12.54.24.93.37.38.13.74.22 1.07.29s.64.1.94.1c.67 0 1.22-.16 1.65-.48s.65-.73.65-1.22c0-.2-.05-.39-.14-.57s-.24-.35-.45-.5-.46-.31-.75-.48c-.29-.16-.59-.31-.89-.43l-1.44-.61c-.71-.3-1.26-.71-1.66-1.23-.39-.53-.59-1.11-.59-1.74 0-1.03.42-1.85 1.25-2.48.83-.62 1.93-.94 3.3-.94h.77c.44.06.71.09.82.12.11.02.38.09.8.2v2.21c-.14-.12-.28-.23-.43-.33-.14-.1-.28-.19-.41-.28-.5-.3-1.09-.46-1.77-.46s-1.17.14-1.58.43c-.4.29-.61.65-.61 1.1 0 .38.16.72.47 1s.87.59 1.67.93l1.4.58c.38.18.78.42 1.2.74.8.63 1.2 1.38 1.2 2.27 0 1.09-.45 1.98-1.36 2.68s-2.07 1.05-3.48 1.05c-.23 0-.42 0-.56-.02-.14-.01-.37-.04-.69-.07-.32-.04-.53-.07-.62-.09-.27-.05-.59-.14-.95-.26l-.66-2.46z" fill="#010101"/><path d="m379.5 194.48c.58-.42.87-.92.87-1.49v-9.2c0-.35-.05-.63-.15-.84s-.31-.44-.61-.7h3.79c-.28.24-.48.48-.59.71-.11.24-.17.52-.17.83v9.2c0 .57.29 1.06.87 1.49h-3.99z" fill="#010101"/><path d="m384.55 194.48c.55-.45.83-.95.83-1.49v-9.2c0-.34-.04-.61-.12-.81s-.25-.44-.53-.74h3.63c-.28.33-.48.61-.59.84s-.17.47-.17.72v9.02c.45.06.81.1 1.08.12s.54.03.82.03h.7c.19-.03.33-.06.42-.07.67-.07 1.16-.16 1.47-.27s.73-.35 1.27-.71l-.88 2.56z" fill="#010101"/><path d="m313.21 17.7c.74-8.73 3.59-15.82 3.59-15.82l-.39-1.87-8.71.83-78.07 106.86-.57-7.01-2.9-2.62-6.44-5.83-18.42-16.67-23.75 10.44-20.12-26.13-50.69-16.99-6.46 19.93h.27c2.39 0 4.33 1.94 4.33 4.33v45.37c.84.82 1.7 1.66 2.59 2.52.74.73 1.5 1.46 2.27 2.22.42.41.85.83 1.28 1.25.2.2.4.39.61.59 1.88 1.83 3.84 3.74 5.84 5.69.43.41.85.83 1.28 1.25 1.05 1.02 2.11 2.06 3.18 3.1.56.54 1.12 1.09 1.68 1.63v-12.3c-2.09-1.98-3.76-3.79-4.86-5.32-.41-.57-.75-1.11-1-1.59-.09-.18-.19-.36-.28-.55-2.57-4.99-6.61-12.63-4.49-22.19.11-.48.23-.96.37-1.45.7-2.47 1.81-5.06 3.47-7.75 1.14-1.85 2.87-3.27 4.92-4 4.84-1.72 14.83-2.62 30.91 7.63.41-.41.89-.74 1.45-.98s1.14-.35 1.75-.35c1.2 0 2.33.47 3.18 1.32s1.32 1.98 1.32 3.18v2.26c1.84 1.42 3.74 2.97 5.71 4.66.82-1.14 2.16-1.89 3.67-1.89 2.49 0 4.51 2.02 4.51 4.51v.92c1.45-1.31 4.03-2.9 7.89-2.66 5.55.35 16.62 1.96 24.39 12.45.16.22.32.44.48.66 3.17 4.83 5.24 9.91 6.59 14.71.18.65.35 1.3.51 1.93.48 2.16 1.01 5.65.36 8.46-1.16 4.98-3.4 7.71-7.62 10.59v-.14c-.19.12-.37.23-.57.34-.12.07-.24.14-.35.2-1.86 1.05-4 1.99-6.36 2.69-1.24.37-2.49.78-3.73 1.27-4.77 1.88-9.44 4.82-12.93 10.04-.82 1.22-1.57 2.57-2.25 4.06-.33.73-.65 1.5-.94 2.3 0 0-.39-.87-1.22-2.3-.63-1.08-1.51-2.48-2.66-4.06-.48-.66-1.01-1.35-1.58-2.06v.06c0 .72-.17 1.39-.47 2-.74 1.49-2.28 2.52-4.05 2.52s-3.31-1.03-4.05-2.52c-.3-.6-.47-1.28-.47-2v-8.8s-.08-.06-.12-.09c-.12-.09-.25-.19-.38-.28-.13-.1-.26-.19-.39-.28-.09-.06-.17-.13-.26-.19-.24-.17-.48-.34-.73-.51-.09-.06-.19-.13-.28-.19s-.19-.13-.29-.19c-.22-.15-.44-.29-.66-.43-.13-.08-.26-.17-.39-.25s-.27-.17-.4-.25c-.14-.08-.27-.17-.41-.25s-.28-.17-.41-.25c-.05-.03-.09-.05-.14-.08v19.48c0 .3-.03.6-.09.89-.13.66-.4 1.26-.79 1.77 12.87 12.41 22.42 21.51 22.77 21.51 6.03-7.2 12.94-15.93 20.31-25.55.94-1.23 1.89-2.48 2.85-3.73l.15-.33h.1c2.09-2.74 4.2-5.55 6.34-8.4s.02-.03.02-.03c.4-.54.8-1.07 1.21-1.61.03-.04.05-.07.08-.11 0 0 0 0-.01 0l2.49-3.34s0 .02 0 .02c.18-.25.37-.5.55-.74 1.01-1.35 2.02-2.71 3.03-4.08l.07-.1c.09-.13.19-.25.28-.38 1.35-1.82 2.7-3.65 4.05-5.49.79-1.08 1.59-2.17 2.39-3.25.2-.27.39-.54.59-.81 2.44-3.33 4.89-6.69 7.32-10.04.98-1.35 1.96-2.71 2.94-4.06 2.43-3.36 4.85-6.71 7.24-10.04 1-1.39 2-2.78 2.99-4.17 27.43-38.28 50.64-72.05 50.53-71.34-.2 1.28 1.12 4.19 3.99 11.35 2.86 7.16 3.9 6.91 2.16 20.3s-16.76 33.31-17.5 33.79c-.75.48-.85 2.62.04 2.72 1.32.15 20.31-19.54 24.97-28.15s5.91-13.33 4.23-23.52-3.18-19.56-2.43-28.28z" fill="#010101" fill-rule="evenodd"/><path d="m86.49 74.01c-1.78 0-3.23 1.44-3.23 3.23v97.05c0 1.78 1.44 3.23 3.23 3.23s3.23-1.44 3.23-3.23v-97.05c0-1.78-1.44-3.23-3.23-3.23zm-13.86 18.74c-1.81 0-3.27 1.46-3.27 3.27v59.83c0 1.81 1.46 3.27 3.27 3.27s3.27-1.46 3.27-3.27v-59.83c0-1.81-1.46-3.27-3.27-3.27zm-27.78 23.74c-1.78 0-3.22 1.44-3.22 3.22v11.78c0 1.78 1.44 3.22 3.22 3.22s3.22-1.44 3.22-3.22v-11.78c0-1.78-1.44-3.22-3.22-3.22zm13.88-6c-1.78 0-3.22 1.44-3.22 3.22v23.78c0 1.78 1.44 3.22 3.22 3.22 1.78 0 3.22-1.44 3.22-3.22v-23.78c0-1.78-1.44-3.22-3.22-3.22zm-55.51 3.57c-1.78 0-3.22 1.44-3.22 3.22v17.24c0 1.78 1.44 3.22 3.22 3.22s3.22-1.44 3.22-3.22v-17.24c0-1.78-1.44-3.22-3.22-3.22zm13.88-5.73c-1.78 0-3.22 1.44-3.22 3.22v28.31c0 1.78 1.44 3.22 3.22 3.22s3.22-1.44 3.22-3.22v-28.31c0-1.78-1.44-3.22-3.22-3.22zm13.88 5.19c-1.78 0-3.22 1.44-3.22 3.22v17.78c0 1.78 1.44 3.22 3.22 3.22s3.22-1.44 3.22-3.22v-17.78c0-1.78-1.44-3.22-3.22-3.22zm152.63-8.13c-1.78 0-3.21 1.44-3.21 3.21v34.65c0 1.78 1.44 3.21 3.21 3.21s3.21-1.44 3.21-3.21v-34.65c0-1.78-1.44-3.21-3.21-3.21zm-83.07-41.3h-.35c-.12 0-.23 0-.34.02-1.52.17-2.71 1.46-2.71 3.03v114.93c0 1.69 1.37 3.05 3.05 3.05h.35c1.68 0 3.05-1.37 3.05-3.05v-114.93c0-1.68-1.37-3.05-3.05-3.05zm96.93 46.97c-1.78 0-3.22 1.44-3.22 3.22v23.35c0 1.78 1.44 3.22 3.22 3.22s3.22-1.44 3.22-3.22v-23.35c0-1.78-1.44-3.22-3.22-3.22zm-41.62-27.87c-.44 0-.87.09-1.25.25-.31.13-.59.3-.83.51-.69.59-1.13 1.47-1.13 2.45v76.48c0 1.78 1.44 3.22 3.22 3.22 1.13 0 2.12-.58 2.69-1.46.22-.34.38-.72.46-1.12.04-.21.06-.42.06-.64v-76.48c0-.89-.36-1.69-.94-2.28-.58-.58-1.39-.94-2.28-.94zm13.88 9.54c-1.13 0-2.12.58-2.7 1.45-.34.51-.54 1.12-.54 1.78v59.49c0 .89.36 1.7.95 2.29.58.58 1.39.95 2.29.95 1.79 0 3.23-1.45 3.23-3.23v-59.49c0-1.79-1.45-3.23-3.23-3.23zm-27.74 12.96c-1.78 0-3.22 1.45-3.22 3.25v33.59c0 .25.03.49.08.72.32 1.44 1.6 2.53 3.14 2.53s2.81-1.09 3.14-2.53c.05-.23.08-.47.08-.72v-33.59c0-1.8-1.45-3.25-3.22-3.25zm-13.87-21.75c-1.79 0-3.22 1.45-3.22 3.25v77.41c0 1.79 1.43 3.25 3.22 3.25s3.22-1.46 3.22-3.25v-77.41c0-1.8-1.45-3.25-3.22-3.25zm-13.87 4.61c-1.79 0-3.23 1.45-3.23 3.23v68.21c0 1.79 1.45 3.23 3.23 3.23s3.23-1.45 3.23-3.23v-68.21c0-1.79-1.45-3.23-3.23-3.23z" fill="url(#b)"/></svg>