<svg height="2426.600098" viewBox="0 0 3884.9 2426.6" width="3884.899902" xmlns="http://www.w3.org/2000/svg" xmlns:xlink="http://www.w3.org/1999/xlink"><linearGradient id="a" gradientUnits="userSpaceOnUse" x1="2052.9" x2="3801.1" y1="1298.2" y2="1298.2"><stop offset="0" stop-color="#00963e"/><stop offset=".9" stop-color="#003071"/><stop offset="1" stop-color="#002776"/></linearGradient><linearGradient id="b" gradientUnits="userSpaceOnUse" x1="104.8" x2="1983.3" y1="1273.1" y2="1273.1"><stop offset="0" stop-color="#fddd01"/><stop offset=".1" stop-color="#e7d706"/><stop offset=".4" stop-color="#afc813"/><stop offset=".7" stop-color="#56b027"/><stop offset="1" stop-color="#009a3c"/></linearGradient><path d="m2380 1050.6h1391v39h-1391z" fill="#fff"/><path d="m2191.4 1315.6h1579.6v38h-1579.6z" fill="#fff"/><path d="m2244.8 1183.6h1526.2v38h-1526.2z" fill="#fff"/><path d="m3771 1447.6v39h-1670.4c.2-.3.5-.7.8-1 12-5.9 20.9-17.3 23.1-31 0 0 3.5-4.7 5.2-7z" fill="#fff"/><path d="m3771 1580.6v38h-1770.3c8.8-11.5 17.7-23.2 26.7-34.9l1.4-3.1z" fill="#fff"/><path d="m3251.5 1173.5c-14.6 0-26.8 10.6-29.6 24.6-.4 2-.6 4-.6 6v154.8c0 16.8 13.6 30.6 30.1 30.6s30.1-13.7 30.1-30.6v-154.8c0-2-.1-4-.6-6-2.7-14-14.8-24.6-29.6-24.6zm389.6-11.9c-16.7 0-30.1 13.7-30.1 30.6v188c0 16.8 13.4 30.6 30.1 30.6s30.1-13.7 30.1-30.6v-188c0-16.8-13.6-30.6-30.1-30.6zm-129.9-229.4c-16.5 0-30.1 13.6-30.1 30.4v640.4c0 3.9.7 7.4 2 10.7 4.3 11.6 15.3 19.7 28.1 19.7s24-8.1 28.3-19.7c1.3-3.3 2-6.9 2-10.7v-640.4c0-16.9-13.6-30.4-30.3-30.4zm-129.8 176.4c-16.7 0-30.3 13.6-30.3 30.4v288.2c0 16.7 13.6 30.4 30.3 30.4s30.1-13.7 30.1-30.4v-288.2c0-16.8-13.6-30.4-30.1-30.4zm-259.7 120c-16.7 0-30.3 13.7-30.3 30.4v47.7c0 9.6 4.3 18 11.1 23.7 5.1 4.1 12 6.7 19.1 6.7s13.9-2.6 19-6.7c6.8-5.7 11.1-14.1 11.1-23.7v-47.7c0-16.7-13.6-30.4-30.1-30.4zm-130-23.6c-9.6 0-18 4.4-23.4 11.4-4.1 5.1-6.7 11.9-6.7 19.1v95.3c0 6.7 2.1 13 5.8 18 5.4 7.7 14.3 12.6 24.3 12.6s18.7-4.9 24.3-12.6c3.7-5 5.8-11.3 5.8-18v-95.3c0-7.3-2.6-14-6.6-19.1-5.7-7-14.1-11.4-23.6-11.4zm0 0s0 0 0 0zm802.8 11.5c-5.7-7-14.1-11.4-23.6-11.4-9.6 0-18 4.4-23.4 11.4-4.1 5.1-6.7 11.9-6.7 19.1v95.3c0 6.7 2.1 13 5.8 18 5.4 7.7 14.3 12.6 24.3 12.6s18.7-4.9 24.3-12.6c3.7-5 5.8-11.3 5.8-18v-95.3c0-7.3-2.6-14-6.6-19.1zm-23.5-11.5s0 0 0 0zm-909.2-64.9c-16.6 0-30.1 13.7-30.1 30.6v230.5c0 16.7 13.6 30.4 30.1 30.4s30.3-13.7 30.3-30.4v-230.5c0-16.9-13.6-30.6-30.3-30.6zm-129.7-148.9c-16.7 0-30.3 13.6-30.3 30.4v524.3c0 16.8 13.6 30.4 30.3 30.4s30.1-13.6 30.1-30.4v-524.3c0-16.9-13.6-30.4-30.1-30.4zm-519.4-59.8c-16.6 0-30.1 13.5-30.1 30.1v648.4c0 16.6 13.5 30.1 30.1 30.1 16.6 0 30.1-13.5 30.1-30.1v-648.4c0-16.6-13.5-30.1-30.1-30.1zm129.8 191.7c-16.6 0-30.1 13.5-30.1 30.1v324.8c0 16.6 13.5 30.1 30.1 30.1 16.6 0 30.1-13.5 30.1-30.1v-324.8c0-16.6-13.5-30.1-30.1-30.1zm129.8 43.7c-16.7 0-30.2 13.5-30.2 30.2v175.6c0 16.7 13.5 30.2 30.2 30.2 16.7 0 30.2-13.5 30.2-30.2v-175.6c0-16.7-13.5-30.2-30.2-30.2zm129.5-235.4c-16.6 0-30.1 13.5-30.1 30.1v673.3c0 16.6 13.5 30.1 30.1 30.1 16.6 0 30.1-13.5 30.1-30.1v-673.3c0-16.6-13.5-30.1-30.1-30.1zm-518.9 239.6c-16.6 0-30.1 13.5-30.1 30.1v162.8c0 16.6 13.5 30.1 30.1 30.1 16.6 0 30.1-13.5 30.1-30.1v-162.8c0-16.6-13.5-30.1-30.1-30.1z" fill="url(#a)" fill-rule="evenodd"/><g fill="#fff"><path d="m124 1580.6h878.1v38h-878.1z"/><path d="m1086.4 1580.6h435v38h-435z"/><path d="m1518.2 1402.1c1.1.6 2.2 1.2 3.2 1.9v178.9c-.8-.8-1.6-1.5-2.4-2.3-.3-.3-.6-.6-.9-.8-31.2-30.2-63.5-61.5-96.1-93.2-3.1-3-6.1-5.9-9.2-8.9 6.2 3.5 13.3 5.6 20.9 5.6 21 0 38.4-15.5 41.6-35.7.4-2.2.5-4.4.5-6.7v-64.1c14.1 8.8 28.2 17.2 42.3 25.3z"/><path d="m1398 1463.2c-5.4-5.2-10.7-10.4-16.1-15.6-11.9-11.6-23.9-23.2-35.8-34.8v-126c14 10.8 28.6 21.6 43.7 32.4.6.4 1.2.9 1.8 1.3v120.3c0 2.3.2 4.6.5 6.7.9 5.7 2.9 10.9 5.8 15.6z"/><path d="m1002 822.2v255.5c-10.4-10.1-19.7-19.2-27.7-27.1-22.4-21.9-35.2-34.4-35.2-34.4l62.9-194.1z"/><path d="m124.6 2258.8c8.5-6.8 14.2-12.7 17-17.6 2.6-5.5 3.8-11.6 3.8-18.4v-221.9c0-5.5-.1-8.9-.4-10.4s-1.2-3.8-2.7-7c-1.5-3.1-3.3-6.1-5.3-9s-5.1-6.5-9.2-10.9h64.3l165.4 209.2v-172c0-7.1-.9-12.6-2.7-16.6s-3.5-7.1-5.1-9.4-4.8-6.1-9.4-11.3h74.9c-6.8 8.2-11.3 14.7-13.5 19.4-2.2 4.8-3.3 10.7-3.3 17.8v270.7c-7.6-1.6-12.8-3-15.4-4.1s-7.9-4.2-15.8-9.4c-4.6-3-8.6-5.7-11.9-8.2s-7.2-5.9-11.7-10.4-10.2-11.1-17-19.8c-1.9-1.9-3.7-4-5.3-6.1-2.7-3.3-4.6-5.7-5.7-7.4l-129.8-162.3v179.8c0 6 1.4 11.7 4.1 17.2s8.6 11.5 17.6 18h-83.1z"/><path d="m452.6 2261.3c6.7-5.4 11.1-10.1 13.3-14.1.7-2 1.3-4.4 2-7.2s1-5.3 1-7.5v-177.3c0-6.1-.8-10.9-2.3-14.4s-5.2-8.6-11.1-15.4h137.4v49.1c-8-12-17-18-27-18h-53.4v63.4h59.5v41.5c-4.3-5-8.9-8.5-13.7-10.5s-11.4-2.9-19.8-2.9h-26v81.1c9.1 1.3 16.1 2.2 21 2.6s10.6.7 17.1.7h17.6c11.9-1.1 21.4-3 28.4-5.7s15.5-7.7 25.8-14.9l-17 49.4h-152.7z"/><path d="m633.6 2025.6h60.4l63.7 183.2 52.6-153.4.8-4.2c0-8.7-6.1-17.2-18.3-25.5h53.7l64.8 188 54.6-158.2c.8-2.4 1.2-5 1.2-7.9 0-4.4-.8-7.8-2.3-10.2s-5.3-6.3-11.4-11.8h58.9l-89.3 245.9-4.6-1.6c-3.1-1.3-6-2.5-8.8-3.6s-5.7-2.4-8.5-3.9c-6.1-3.1-11.3-6.9-15.7-11.4-4.4-4.6-7.5-9.7-9.5-15.4l-5.2-16-42.5-113.8-58.5 164.2c-6.8-2.4-11.7-4.4-14.9-6s-6.8-3.8-11-6.4c-10.3-6.5-16.7-13.6-19.3-21.3l-4.3-11.4-63.8-169.4c-2-5.4-4.6-10.4-7.8-14.7-1.3-1.7-3.4-4-6.4-6.9-2.9-2.8-5.8-5.6-8.7-8.2z"/><path d="m1161.5 2261.3c7.7-5.8 13.2-11.5 16.5-17.1s4.9-12 4.9-19.2v-223.4c0-8.2-1.1-14.7-3.3-19.4s-7.3-10.7-15.3-18.1h90.7c-6.5 6.9-11.1 13.2-13.9 19s-4.2 12-4.2 18.6v80h144.3v-80c0-7.4-1.2-13.7-3.7-19-2.5-5.2-7.3-11.4-14.4-18.6h91.1c-7.7 7.4-12.8 13.6-15.3 18.6-2.5 4.9-3.7 11.3-3.7 19v223.4c0 7.7 1.5 14.2 4.5 19.4s8.7 10.9 16.9 16.9h-96.1c4.4-3.3 7.7-6.2 9.9-8.7s4.5-5.9 7-10.3 3.7-10.2 3.7-17.4v-105.8h-144.3v105.8c0 7.4 1.5 13.8 4.4 19 3 5.2 8.4 11 16.2 17.4h-96.1z"/><path d="m1485.3 2261.3c6.7-5.4 11.1-10.1 13.3-14.1.7-2 1.3-4.4 2-7.2s1-5.3 1-7.5v-177.3c0-6.1-.8-10.9-2.3-14.4s-5.2-8.6-11.1-15.4h137.4v49.1c-8-12-17-18-27-18h-53.4v63.4h59.5v41.5c-4.3-5-8.9-8.5-13.7-10.5s-11.4-2.9-19.8-2.9h-26v81.1c9.1 1.3 16.1 2.2 21 2.6s10.6.7 17.1.7h17.6c11.9-1.1 21.4-3 28.4-5.7s15.5-7.7 25.8-14.9l-17 49.4h-152.7z"/><path d="m1665.3 2261.3c5-2.8 8.6-5.1 10.8-6.9 2.2-1.7 4.8-4.1 7.8-7.2 1.7-2 3.4-4.3 5.1-6.9s3.1-5.2 4.4-7.8l73.3-176.6c1.5-4.6 2.3-8.8 2.3-12.8s-.5-4.9-1.5-7.5-2.9-6-5.7-10.1h58.9l82.4 207c1.7 5.2 4.8 10.1 9.2 14.7 2.2 2.2 4.6 4.4 7.4 6.5 2.7 2.2 6.5 4.7 11.3 7.5h-85.4c4.4-3.5 7.4-6.6 9.2-9.5 1.7-2.8 2.6-6.1 2.6-9.8s-.5-6.2-1.6-9.5l-20.9-54.9h-84.1l-21.3 54.9c-1 3.3-1.4 6.7-1.4 10.2 0 6.3 3.7 12.6 11.1 18.7h-73.6zm128.4-196.4-32.2 84.6h63.4l-31.1-84.6z"/><path d="m1959.4 2261.3c6.1-4.6 10.4-8.9 12.8-13.1 2.4-4.1 3.6-9.2 3.6-15v-177.6c0-5-1-9.9-3.1-14.7-1.4-2.2-2.7-4.2-4.1-6.2s-3.9-5-7.5-9.2h81.1c26.4 0 47 5.3 62 16 14.9 10.7 22.4 25.5 22.4 44.5s-5 27.3-15 37.3c-5.7 5.7-11.2 9.8-16.7 12.4s-14.1 5.3-25.8 8.2l21.9 29.1c4.6 6.1 10.8 13.6 18.6 22.6 8.7 9.8 18.1 19.8 28.1 30.1 8.9 9.4 16 16.2 21.1 20.4 5.1 4.3 12.9 9.3 23.4 15.2h-53c-8.7 0-18.1-5-28.1-15-11.8-12-23.8-26.7-36-44.2-8.3-11.1-15.6-21.4-21.9-30.7-5-7.4-12.2-18.6-21.6-33.7 41-5.7 61.5-21.6 61.5-47.7s-17.3-36.6-52-36.6h-13.1v179.2c0 6.3 1.1 11.5 3.4 15.4s6.7 8.4 13.2 13.4h-75.2z"/><path d="m2192.4 2071 14.4-45.5h181.9l-15 47.7c-2.6-3.7-4.9-6.2-6.9-7.5-8.3-5.9-21.5-8.8-39.6-8.8h-15.7v175.5c0 1.8.3 4.2 1 7.2.7 3.1 1.5 5.6 2.6 7.5 1.7 4.2 6.2 8.9 13.4 14.1h-76.5c6.5-5.2 10.7-9.9 12.4-14.1 2.4-4.1 3.6-9 3.6-14.7v-174.6l-17.3-1h-9.6c-2.9 0-7.4.3-13.4 1s-11.3 1.8-16 3.4-11.1 4.8-19.1 9.6z"/></g><path d="m2539.1 2261.3c4.9-3.6 8.5-6.7 10.9-9.3s4.5-5.4 6.2-8.5c2.9-5.5 4.3-11.7 4.3-18.6v-224.1c0-7.2-1.2-13.3-3.7-18.4s-7.4-11.4-14.9-18.8h91.2c31.9 0 57.6 4 77.2 12 12.1 5.2 21.6 12.8 28.5 22.7s10.3 21.3 10.3 34.3-5.1 28.1-15.3 38c-3.9 4.1-8.1 7.6-12.8 10.3-4.7 2.8-11.1 5.5-19.4 8.3 11 1.7 19.5 3.6 25.6 5.8s12.1 5.6 18.2 10.3c19 14.3 28.5 34 28.5 59s-1.8 20.2-5.4 30.1-8.7 19-15.3 27.2c-12.4 14.6-28.1 24.8-47.1 30.7s-45.5 8.9-79.7 8.9h-87.5zm74.7-264.5v88.3c5.8.8 10.2 1.2 13.3 1.2 23.5 0 40.1-4.3 49.8-12.8 9.7-9.1 14.5-19.9 14.5-32.6s-4.8-25.4-14.5-33.4-23.5-12-41.5-12l-21.6 1.2zm0 118.4v106.5c8.8 2.2 15.5 3.6 20 4.1 4.5.6 10.1.8 16.7.8 19.5 0 35.6-5.4 48.3-16.1s19-24.6 19-41.7-3.3-22.2-9.9-31.2c-6.6-8.9-16-15.1-28.3-18.6-12.2-3.4-25.9-5.2-41.1-5.2l-24.8 1.2z" fill="#009c3b"/><path d="m2794.3 2261.3c6.1-4.6 10.4-8.9 12.8-13.1 2.4-4.1 3.6-9.2 3.6-15v-177.6c0-5-1-9.9-3.1-14.7-1.4-2.2-2.7-4.2-4.1-6.2s-3.9-5-7.5-9.2h81.1c26.4 0 47 5.3 62 16 14.9 10.7 22.4 25.5 22.4 44.5s-5 27.3-15 37.3c-5.7 5.7-11.2 9.8-16.7 12.4s-14.1 5.3-25.8 8.2l21.9 29.1c4.6 6.1 10.8 13.6 18.6 22.6 8.7 9.8 18.1 19.8 28.1 30.1 8.9 9.4 16 16.2 21.1 20.4 5.1 4.3 12.9 9.3 23.4 15.2h-53c-8.7 0-18.1-5-28.1-15-11.8-12-23.8-26.7-36-44.2-8.3-11.1-15.6-21.4-21.9-30.7-5-7.4-12.2-18.6-21.6-33.7 41-5.7 61.5-21.6 61.5-47.7s-17.3-36.6-52-36.6h-13.1v179.2c0 6.3 1.1 11.5 3.4 15.4s6.7 8.4 13.2 13.4h-75.2z" fill="#009c3b"/><path d="m3037.5 2261.3c5-2.8 8.6-5.1 10.8-6.9 2.2-1.7 4.8-4.1 7.8-7.2 1.7-2 3.4-4.3 5.1-6.9s3.1-5.2 4.4-7.8l73.3-176.6c1.5-4.6 2.3-8.8 2.3-12.8s-.5-4.9-1.5-7.5-2.9-6-5.7-10.1h58.9l82.4 207c1.7 5.2 4.8 10.1 9.2 14.7 2.2 2.2 4.6 4.4 7.4 6.5 2.7 2.2 6.5 4.7 11.3 7.5h-85.4c4.4-3.5 7.4-6.6 9.2-9.5 1.7-2.8 2.6-6.1 2.6-9.8s-.5-6.2-1.6-9.5l-20.9-54.9h-84.1l-21.3 54.9c-1 3.3-1.4 6.7-1.4 10.2 0 6.3 3.7 12.6 11.1 18.7h-73.6zm128.4-196.4-32.2 84.6h63.4l-31.1-84.6z" fill="#009c3b"/><path d="m3323.4 2205.4c7.6 5.1 13.6 8.7 18.2 11.1 4.5 2.3 10.5 4.7 17.9 7.1s14.2 4.3 20.6 5.5c6.3 1.3 12.3 1.9 18 1.9 12.9 0 23.4-3.1 31.8-9.3 8.3-6.2 12.5-14.1 12.5-23.6s-.9-7.4-2.7-10.9-4.7-6.7-8.7-9.6-8.8-6-14.4-9.2-11.3-5.9-17.2-8.2l-27.8-11.7c-13.7-5.7-24.3-13.6-31.9-23.7s-11.4-21.3-11.4-33.5c0-19.8 8-35.7 24-47.7s37.2-18 63.5-18h14.9c8.4 1.1 13.7 1.8 15.8 2.2s7.3 1.7 15.5 3.8v42.6c-2.7-2.4-5.5-4.5-8.2-6.4-2.7-1.8-5.4-3.6-7.9-5.4-9.7-5.9-21.1-8.8-34.1-8.8s-22.6 2.8-30.4 8.2c-7.8 5.5-11.7 12.6-11.7 21.2s3 13.8 9 19.2 16.7 11.4 32.1 17.9l26.9 11.1c7.4 3.4 15.1 8.1 23.1 14.3 15.4 12.1 23.1 26.6 23.1 43.8s-8.7 38.2-26.2 51.7-39.8 20.3-67 20.3-8-.1-10.7-.3-7.2-.7-13.3-1.4-10.1-1.3-12-1.7c-5.3-1.1-11.4-2.7-18.3-5.1l-12.6-47.4z" fill="#009c3b"/><path d="m3504.1 2261.3c11.1-8.1 16.7-17.7 16.7-28.8v-177.3c0-6.8-1-12.2-2.9-16.2-2-4-5.9-8.6-11.8-13.6h72.9c-5.5 4.6-9.3 9.2-11.4 13.7-2.2 4.6-3.3 9.9-3.3 16v177.3c0 10.9 5.6 20.5 16.7 28.8h-76.9z" fill="#009c3b"/><path d="m3601.3 2261.3c10.7-8.7 16-18.3 16-28.8v-177.3c0-6.5-.8-11.7-2.3-15.5s-4.9-8.6-10.1-14.2h70c-5.5 6.3-9.3 11.7-11.4 16.2-2.2 4.5-3.3 9.1-3.3 13.9v173.7c8.7 1.1 15.6 1.9 20.8 2.3 5.1.4 10.4.7 15.9.7h13.4c3.7-.7 6.4-1.1 8.2-1.3 12.9-1.3 22.3-3.1 28.3-5.2 6-2.2 14.1-6.8 24.4-13.7l-17 49.4h-152.7z" fill="#009c3b"/><path d="m124.5 1183.6h877.5v38h-877.5z" fill="#fff"/><path d="m1086.4 1183.6h110.5v38h-110.5z" fill="#fff"/><path d="m2137 1618.6s-125 0-125 0l9.4-21.5 6-13.4 1.4-3.1h106.9v23c0 5 .4 10.3 1.3 15z" fill="#fff"/><path d="m124.5 1447.6h877.5v39h-877.5z" fill="#fff"/><path d="m1422 1486.6h-335.6v-39h295.5s37.1 36 40.2 39z" fill="#fff"/><path d="m124.5 1315.6h877.5v38h-877.5z" fill="#fff"/><path d="m1086.4 1315.6h175.4v38h-175.4z" fill="#fff"/><path d="m124.3 1050.6h877.7v39h-877.7z" fill="#fff"/><path d="m1086.4 1050.6h28.6v39h-28.6z" fill="#fff"/><path d="m2028.7 1580.6-1.4 3.1c.8-1 1.5-2 2.3-3.1h-1z" fill-rule="evenodd"/><path d="m3036.4 272.5c7-81.7 33.6-148.1 33.6-148.1l-3.7-17.5-81.5 7.8-730.8 1000.2-5.3-65.7-27.1-24.6-60.2-54.5-172.4-156-222.3 97.7-188.3-244.6-474.5-159-60.5 186.6h2.5c22.4 0 40.6 18.2 40.6 40.6v424.7c7.9 7.7 15.9 15.5 24.2 23.6 7 6.8 14.1 13.7 21.3 20.8 4 3.9 8 7.8 12 11.7 1.9 1.8 3.8 3.7 5.7 5.5 17.6 17.2 35.9 35 54.7 53.3 4 3.9 8 7.8 12 11.7 9.8 9.6 19.8 19.2 29.8 29 5.2 5.1 10.4 10.2 15.7 15.3v-115.2c-19.5-18.5-35.2-35.5-45.5-49.8-3.9-5.4-7-10.3-9.4-14.9-.9-1.7-1.8-3.4-2.6-5.2-24-46.7-61.8-118.2-42-207.7 1-4.5 2.1-9 3.4-13.6 6.5-23.1 17-47.3 32.5-72.6 10.7-17.3 26.9-30.6 46-37.4 45.3-16.1 138.8-24.5 289.3 71.4 3.8-3.8 8.4-7 13.5-9.1 5.2-2.2 10.7-3.3 16.4-3.3 11.2 0 21.8 4.4 29.8 12.3 8 8 12.3 18.5 12.3 29.8v21.2c17.2 13.3 35 27.8 53.4 43.6 7.7-10.7 20.2-17.7 34.4-17.7 23.3 0 42.3 18.9 42.3 42.2v8.6c13.6-12.3 37.7-27.2 73.8-24.9 51.9 3.3 155.6 18.3 228.3 116.6 1.5 2 3 4.1 4.5 6.2 29.7 45.2 49.1 92.8 61.7 137.7 1.7 6.1 3.3 12.1 4.7 18.1 4.5 20.2 9.5 52.8 3.4 79.2-10.8 46.6-31.8 72.2-71.3 99.1v-1.3c-1.7 1.1-3.5 2.1-5.3 3.2-1.1.6-2.2 1.3-3.3 1.9-17.4 9.8-37.4 18.6-59.5 25.2-11.6 3.4-23.3 7.3-34.9 11.9-44.7 17.6-88.3 45.1-121 94-7.7 11.4-14.7 24.1-21.1 38-3.1 6.8-6 14-8.8 21.5 0 0-3.6-8.1-11.4-21.5-5.9-10.1-14.1-23.2-24.9-38-4.5-6.1-9.4-12.6-14.8-19.3v.6c0 6.7-1.6 13-4.4 18.7-6.9 14-21.3 23.6-37.9 23.6s-31-9.6-37.9-23.6c-2.8-5.6-4.4-12-4.4-18.7v-82.4c-.4-.3-.7-.6-1.1-.8-1.2-.9-2.3-1.7-3.5-2.6s-2.4-1.8-3.6-2.7c-.8-.6-1.6-1.2-2.5-1.8-2.2-1.6-4.5-3.2-6.8-4.8-.9-.6-1.8-1.2-2.7-1.8s-1.8-1.2-2.7-1.8c-2-1.4-4.1-2.7-6.2-4-1.2-.8-2.4-1.6-3.7-2.3-1.3-.8-2.5-1.6-3.8-2.4s-2.6-1.6-3.9-2.3c-1.3-.8-2.6-1.5-3.9-2.3-.4-.2-.9-.5-1.3-.8v182.3c0 2.8-.3 5.6-.8 8.3-1.2 6.2-3.8 11.8-7.3 16.6 120.4 116.2 209.8 201.4 213.1 201.3 56.4-67.3 121.1-149.1 190.1-239.1 8.8-11.5 17.7-23.2 26.7-34.9l1.4-3.1h1c19.5-25.7 39.3-51.9 59.4-78.6s.2-.3.2-.3c3.8-5 7.5-10 11.3-15.1.2-.3.5-.7.8-1l23.3-31.2v.2c1.7-2.3 3.5-4.6 5.2-7 9.4-12.7 18.9-25.4 28.3-38.2l.7-.9c.9-1.2 1.7-2.3 2.6-3.5 12.6-17 25.2-34.2 37.9-51.4 7.4-10.1 14.9-20.3 22.4-30.4 1.8-2.5 3.7-5 5.5-7.6 22.9-31.2 45.7-62.6 68.5-94 9.2-12.7 18.4-25.3 27.5-38 22.8-31.4 45.4-62.9 67.8-94 9.4-13.1 18.7-26.1 28-39 256.7-358.3 474-674.4 472.9-667.7-1.9 12 10.5 39.2 37.3 106.2 26.8 67.1 36.5 64.7 20.2 190s-156.8 311.8-163.8 316.2c-7 4.5-7.9 24.5.4 25.5 12.4 1.4 190.1-182.9 233.8-263.5s55.3-124.8 39.6-220.1-29.7-183-22.8-264.7z" fill="#fff"/><path d="m524.6 1197.2c-16.7 0-30.2 13.5-30.2 30.2v110.2c0 16.7 13.5 30.2 30.2 30.2 16.7 0 30.2-13.5 30.2-30.2v-110.2c0-16.7-13.5-30.2-30.2-30.2zm129.9-56.2c-16.7 0-30.2 13.5-30.2 30.2v222.6c0 16.7 13.5 30.2 30.2 30.2 16.7 0 30.2-13.5 30.2-30.2v-222.6c0-16.7-13.5-30.2-30.2-30.2zm130-166c-16.9 0-30.6 13.7-30.6 30.6v560c0 16.9 13.7 30.6 30.6 30.6 16.9 0 30.6-13.7 30.6-30.6v-560c0-16.9-13.7-30.6-30.6-30.6zm-649.6 199.4c-16.7 0-30.2 13.5-30.2 30.2v161.3c0 16.7 13.5 30.2 30.2 30.2 16.7 0 30.2-13.5 30.2-30.2v-161.3c0-16.7-13.5-30.2-30.2-30.2zm1818.2-28c-16.6 0-30.1 13.5-30.1 30.1v218.6c0 16.6 13.5 30.1 30.1 30.1 16.6 0 30.1-13.5 30.1-30.1v-218.6c0-16.6-13.5-30.1-30.1-30.1zm-1558.4 23c-16.7 0-30.2 13.5-30.2 30.2v166.4c0 16.7 13.5 30.2 30.2 30.2 16.7 0 30.2-13.5 30.2-30.2v-166.4c0-16.7-13.5-30.2-30.2-30.2zm-129.9-48.6c-16.7 0-30.2 13.5-30.2 30.2v265c0 16.7 13.5 30.2 30.2 30.2 16.7 0 30.2-13.5 30.2-30.2v-265c0-16.7-13.5-30.2-30.2-30.2zm649.5-321.2c-16.7 0-30.2 13.5-30.2 30.2v908.4c0 16.7 13.5 30.2 30.2 30.2 16.7 0 30.2-13.5 30.2-30.2v-908.4c0-16.7-13.5-30.2-30.2-30.2zm131.5-92.9h-3.3c-1.1 0-2.2 0-3.2.2-14.3 1.6-25.3 13.7-25.3 28.4v1075.7c0 15.8 12.8 28.6 28.6 28.6h3.3c15.8 0 28.6-12.8 28.6-28.6v-1075.7c0-15.8-12.8-28.6-28.6-28.6zm517.7 178.8c-4.1 0-8.1.8-11.7 2.4-2.9 1.2-5.5 2.8-7.8 4.8-6.5 5.5-10.6 13.8-10.6 22.9v715.8c0 16.6 13.5 30.1 30.1 30.1s19.8-5.4 25.2-13.6c2.1-3.1 3.5-6.7 4.3-10.5.4-1.9.6-3.9.6-5.9v-715.8c0-8.3-3.4-15.9-8.8-21.3s-13-8.8-21.3-8.8zm259.9 207.8c-16.6 0-30.1 13.5-30.1 30.1v324.3c0 16.6 13.5 30.1 30.1 30.1 16.6 0 30.1-13.5 30.1-30.1v-324.3c0-16.6-13.5-30.1-30.1-30.1zm-130-118.5c-10.5 0-19.8 5.4-25.2 13.6-3.2 4.8-5 10.5-5 16.7v556.9c0 8.4 3.4 15.9 8.9 21.4s13 8.9 21.4 8.9c16.7 0 30.3-13.5 30.3-30.3v-556.9c0-16.7-13.6-30.2-30.3-30.2zm-259.7 121.3c-16.7 0-30.1 13.6-30.1 30.4v314.4c0 2.3.3 4.6.8 6.7 3 13.5 15 23.7 29.4 23.7s26.3-10.2 29.4-23.7c.5-2.2.8-4.4.8-6.7v-314.4c0-16.8-13.6-30.4-30.1-30.4zm-129.7-203.6c-16.7 0-30.1 13.6-30.1 30.4v724.5c0 16.7 13.4 30.4 30.1 30.4s30.1-13.7 30.1-30.4v-724.5c0-16.9-13.6-30.4-30.1-30.4zm-129.9 43.2c-16.7 0-30.3 13.5-30.3 30.3v638.5c0 16.7 13.5 30.3 30.3 30.3 16.7 0 30.3-13.5 30.3-30.3v-638.5c0-16.7-13.5-30.3-30.3-30.3z" fill="url(#b)"/></svg>