<svg height="2426.600098" viewBox="0 0 3884.9 2426.6" width="3884.899902" xmlns="http://www.w3.org/2000/svg"><g fill="#fff"><path d="m2089.5 2082.8c4-3.2 6.6-5.9 8-8.2 1.2-2.5 1.8-5.4 1.8-8.6v-103.5c0-2.5 0-4.2-.2-4.9-.1-.7-.5-1.8-1.2-3.2-.7-1.5-1.5-2.9-2.5-4.2s-2.4-3-4.3-5.1h30l77.2 97.6v-80.2c0-3.3-.4-5.9-1.2-7.7s-1.6-3.3-2.4-4.4-2.2-2.8-4.4-5.3h35c-3.2 3.8-5.3 6.8-6.3 9.1-1 2.2-1.5 5-1.5 8.3v126.3c-3.6-.8-6-1.4-7.2-1.9s-3.7-2-7.4-4.4c-2.2-1.4-4-2.7-5.5-3.8s-3.3-2.8-5.4-4.9-4.7-5.2-7.9-9.2c-.9-.9-1.7-1.8-2.5-2.9-1.3-1.5-2.2-2.7-2.7-3.4l-60.6-75.7v83.9c0 2.8.6 5.5 1.9 8s4 5.3 8.2 8.4h-38.8z"/><path d="m2242.6 2084c3.1-2.5 5.2-4.7 6.2-6.6.3-.9.6-2 .9-3.4.3-1.3.5-2.5.5-3.5v-82.7c0-2.8-.4-5.1-1.1-6.7s-2.4-4-5.2-7.2h64.1v22.9c-3.7-5.6-8-8.4-12.6-8.4h-24.9v29.6h27.8v19.4c-2-2.3-4.1-4-6.4-4.9-2.2-.9-5.3-1.4-9.3-1.4h-12.1v37.8c4.3.6 7.5 1 9.8 1.2s4.9.3 8 .3h8.2c5.6-.5 10-1.4 13.2-2.7s7.3-3.6 12-6.9l-7.9 23h-71.3z"/><path d="m2327 1974h28.2l29.7 85.5 24.6-71.6.4-2c0-4.1-2.9-8-8.6-11.9h25l30.2 87.7 25.5-73.8c.4-1.1.5-2.3.5-3.7 0-2-.4-3.6-1.1-4.7s-2.5-3-5.3-5.5h27.5l-41.7 114.7-2.1-.8c-1.4-.6-2.8-1.2-4.1-1.7s-2.6-1.1-4-1.8c-2.8-1.4-5.3-3.2-7.3-5.3s-3.5-4.5-4.4-7.2l-2.4-7.5-19.8-53.1-27.3 76.6c-3.2-1.1-5.5-2.1-6.9-2.8-1.5-.8-3.2-1.8-5.1-3-4.8-3.1-7.8-6.4-9-9.9l-2-5.3-29.8-79c-.9-2.5-2.1-4.8-3.7-6.9-.6-.8-1.6-1.9-3-3.2s-2.7-2.6-4-3.8z"/><path d="m2573.3 2084c3.6-2.7 6.2-5.4 7.7-8s2.3-5.6 2.3-8.9v-104.3c0-3.8-.5-6.9-1.5-9-1-2.2-3.4-5-7.1-8.5h42.3c-3 3.2-5.2 6.2-6.5 8.8-1.3 2.7-2 5.6-2 8.7v37.3h67.3v-37.3c0-3.5-.6-6.4-1.7-8.8-1.2-2.4-3.4-5.3-6.7-8.7h42.5c-3.6 3.5-6 6.3-7.1 8.7-1.2 2.3-1.7 5.3-1.7 8.8v104.3c0 3.6.7 6.6 2.1 9s4 5.1 7.9 7.9h-44.8c2-1.5 3.6-2.9 4.6-4.1s2.1-2.8 3.3-4.8c1.2-2.1 1.7-4.8 1.7-8.1v-49.4h-67.3v49.4c0 3.5.7 6.4 2.1 8.9 1.4 2.4 3.9 5.1 7.5 8.1h-44.8z"/><path d="m2724.4 2084c3.1-2.5 5.2-4.7 6.2-6.6.3-.9.6-2 .9-3.4.3-1.3.5-2.5.5-3.5v-82.7c0-2.8-.4-5.1-1.1-6.7s-2.4-4-5.2-7.2h64.1v22.9c-3.7-5.6-8-8.4-12.6-8.4h-24.9v29.6h27.8v19.4c-2-2.3-4.1-4-6.4-4.9s-5.3-1.4-9.3-1.4h-12.1v37.8c4.3.6 7.5 1 9.8 1.2s4.9.3 8 .3h8.2c5.6-.5 10-1.4 13.2-2.7s7.3-3.6 12-6.9l-7.9 23h-71.3z"/><path d="m2808.3 2084c2.3-1.3 4-2.4 5-3.2s2.2-1.9 3.7-3.4c.8-.9 1.6-2 2.4-3.2s1.4-2.4 2.1-3.7l34.2-82.4c.7-2.1 1.1-4.1 1.1-6s-.2-2.3-.7-3.5-1.3-2.8-2.7-4.7h27.5l38.4 96.6c.8 2.4 2.2 4.7 4.3 6.9 1 1 2.2 2 3.4 3.1 1.3 1 3 2.2 5.3 3.5h-39.8c2-1.6 3.5-3.1 4.3-4.4s1.2-2.8 1.2-4.6-.3-2.9-.8-4.4l-9.8-25.6h-39.3l-10 25.6c-.5 1.5-.7 3.1-.7 4.7 0 3 1.7 5.9 5.2 8.7zm60-91.7-15 39.5h29.6l-14.5-39.5z"/><path d="m2945.6 2084c2.8-2.1 4.8-4.2 6-6.1 1.1-1.9 1.7-4.3 1.7-7v-82.9c0-2.3-.5-4.6-1.4-6.9-.6-1-1.3-2-1.9-2.9s-1.8-2.3-3.5-4.3h37.8c12.3 0 21.9 2.5 28.9 7.5s10.5 11.9 10.5 20.7-2.3 12.7-7 17.4c-2.6 2.6-5.2 4.6-7.8 5.8-2.5 1.2-6.6 2.5-12.1 3.8l10.2 13.6c2.1 2.8 5 6.4 8.7 10.5 4.1 4.6 8.4 9.3 13.1 14 4.2 4.4 7.5 7.6 9.8 9.5 2.4 2 6 4.3 10.9 7.1h-24.7c-4.1 0-8.4-2.3-13.1-7-5.5-5.6-11.1-12.5-16.8-20.6-3.9-5.2-7.3-10-10.2-14.3-2.3-3.5-5.7-8.7-10.1-15.7 19.1-2.6 28.7-10.1 28.7-22.3s-8.1-17.1-24.3-17.1h-6.1v83.6c0 3 .5 5.4 1.6 7.2s3.1 3.9 6.2 6.3h-35.1z"/><path d="m3054.3 1995.2 6.7-21.2h84.8l-7 22.3c-1.2-1.7-2.3-2.9-3.2-3.5-3.9-2.7-10-4.1-18.5-4.1h-7.3v81.9c0 .8.2 1.9.5 3.4.3 1.4.7 2.6 1.2 3.5.8 1.9 2.9 4.1 6.3 6.6h-35.7c3.1-2.4 5-4.6 5.8-6.6 1.1-1.9 1.7-4.2 1.7-6.9v-81.5l-8.1-.5h-4.5c-1.4 0-3.5.2-6.3.5s-5.3.9-7.5 1.6-5.2 2.2-8.9 4.5z"/><path d="m3216 2084c2.3-1.7 4-3.1 5.1-4.3s2.1-2.5 2.9-3.9c1.3-2.6 2-5.5 2-8.7v-104.6c0-3.3-.6-6.2-1.7-8.6-1.2-2.4-3.5-5.3-6.9-8.8h42.6c14.9 0 26.9 1.9 36 5.6 5.6 2.4 10.1 6 13.3 10.6s4.8 10 4.8 16-2.4 13.1-7.1 17.7c-1.8 1.9-3.8 3.5-6 4.8s-5.2 2.6-9 3.8c5.1.8 9.1 1.7 11.9 2.7s5.6 2.6 8.5 4.8c8.9 6.7 13.3 15.9 13.3 27.5s-.8 9.4-2.5 14.1c-1.7 4.6-4 8.9-7.1 12.7-5.8 6.8-13.1 11.6-22 14.3-8.9 2.8-21.2 4.1-37.2 4.1h-40.8zm34.9-123.4v41.2c2.7.4 4.8.6 6.2.6 11 0 18.7-2 23.2-6 4.5-4.2 6.8-9.3 6.8-15.2s-2.3-11.9-6.8-15.6-11-5.6-19.4-5.6l-10.1.6zm0 55.2v49.7c4.1 1 7.2 1.7 9.3 1.9 2.1.3 4.7.4 7.8.4 9.1 0 16.6-2.5 22.5-7.5s8.9-11.5 8.9-19.4-1.5-10.4-4.6-14.5c-3.1-4.2-7.5-7.1-13.2-8.7s-12.1-2.4-19.2-2.4l-11.6.6z"/><path d="m3335.1 2084c2.8-2.1 4.8-4.2 6-6.1 1.1-1.9 1.7-4.3 1.7-7v-82.9c0-2.3-.5-4.6-1.4-6.9-.6-1-1.3-2-1.9-2.9s-1.8-2.3-3.5-4.3h37.8c12.3 0 21.9 2.5 28.9 7.5s10.5 11.9 10.5 20.7-2.3 12.7-7 17.4c-2.6 2.6-5.2 4.6-7.8 5.8-2.5 1.2-6.6 2.5-12.1 3.8l10.2 13.6c2.1 2.8 5 6.4 8.7 10.5 4.1 4.6 8.4 9.3 13.1 14 4.2 4.4 7.5 7.6 9.8 9.5 2.4 2 6 4.3 10.9 7.1h-24.7c-4.1 0-8.4-2.3-13.1-7-5.5-5.6-11.1-12.5-16.8-20.6-3.9-5.2-7.3-10-10.2-14.3-2.3-3.5-5.7-8.7-10.1-15.7 19.1-2.6 28.7-10.1 28.7-22.3s-8.1-17.1-24.3-17.1h-6.1v83.6c0 3 .5 5.4 1.6 7.2s3.1 3.9 6.2 6.3h-35.1z"/><path d="m3448.5 2084c2.3-1.3 4-2.4 5-3.2s2.2-1.9 3.7-3.4c.8-.9 1.6-2 2.4-3.2s1.4-2.4 2.1-3.7l34.2-82.4c.7-2.1 1.1-4.1 1.1-6s-.2-2.3-.7-3.5-1.3-2.8-2.7-4.7h27.5l38.4 96.6c.8 2.4 2.2 4.7 4.3 6.9 1 1 2.2 2 3.4 3.1 1.3 1 3 2.2 5.3 3.5h-39.8c2-1.6 3.5-3.1 4.3-4.4s1.2-2.8 1.2-4.6-.3-2.9-.8-4.4l-9.8-25.6h-39.3l-10 25.6c-.5 1.5-.7 3.1-.7 4.7 0 3 1.7 5.9 5.2 8.7zm60-91.7-15 39.5h29.6l-14.5-39.5z"/><path d="m3582 2057.9c3.5 2.4 6.4 4.1 8.5 5.2s4.9 2.2 8.3 3.3 6.6 2 9.6 2.6c2.9.6 5.8.9 8.4.9 6 0 10.9-1.5 14.8-4.4s5.8-6.6 5.8-11-.4-3.5-1.3-5.1c-.8-1.6-2.2-3.1-4.1-4.5s-4.1-2.8-6.7-4.3-5.3-2.8-8-3.8l-13-5.5c-6.4-2.7-11.4-6.3-14.9-11.1-3.5-4.7-5.3-9.9-5.3-15.6 0-9.2 3.7-16.7 11.2-22.3s17.4-8.4 29.6-8.4h6.9c3.9.5 6.4.8 7.4 1s3.4.8 7.2 1.8v19.9c-1.3-1.1-2.6-2.1-3.8-3-1.3-.9-2.5-1.7-3.7-2.5-4.5-2.7-9.8-4.1-15.9-4.1s-10.5 1.3-14.2 3.8c-3.6 2.6-5.5 5.9-5.5 9.9s1.4 6.4 4.2 9c2.8 2.5 7.8 5.3 15 8.4l12.5 5.2c3.4 1.6 7 3.8 10.8 6.7 7.2 5.6 10.8 12.4 10.8 20.4s-4.1 17.8-12.2 24.1c-8.2 6.3-18.6 9.5-31.3 9.5s-3.7 0-5-.1c-1.3 0-3.3-.3-6.2-.7-2.9-.3-4.7-.6-5.6-.8-2.5-.5-5.3-1.3-8.6-2.4l-5.9-22.1z"/><path d="m3666.3 2084c5.2-3.8 7.8-8.2 7.8-13.4v-82.7c0-3.2-.5-5.7-1.4-7.6s-2.7-4-5.5-6.3h34c-2.5 2.1-4.3 4.3-5.3 6.4s-1.5 4.6-1.5 7.5v82.7c0 5.1 2.6 9.6 7.8 13.4z"/><path d="m3711.6 2084c5-4.1 7.5-8.5 7.5-13.4v-82.7c0-3.1-.4-5.5-1.1-7.2-.7-1.8-2.3-4-4.7-6.6h32.7c-2.5 3-4.3 5.5-5.3 7.6s-1.5 4.2-1.5 6.5v81c4.1.5 7.3.9 9.7 1.1s4.9.3 7.4.3h6.3c1.7-.3 3-.5 3.8-.6 6-.6 10.4-1.4 13.2-2.4s6.6-3.2 11.4-6.4l-7.9 23h-71.3z"/><path d="m1189.7 965.6v70.4c-.2-1.6-.3-3.3-.3-5v-60.4c0-.4 0-.8 0-1.1 0-1.3.1-2.5.3-3.8z"/><path d="m2373 1284.1h1391v39h-1391z"/><path d="m2162.7 1549.1h1601.3v38h-1601.3z"/><path d="m2069.3 1681.1h1694.7v39h-1694.7z"/><path d="m117.3 1417.1h1071.1v38h-1071.1z"/><path d="m3764 1814.1v38h-1808.1c5.3-4.7 7.5-10 7.5-15v-23z"/><path d="m2345 1417.1v38h-36l12.4-21.2 9.7-16.8z"/><path d="m2251.6 1417.1h1512.4v38h-1512.4z"/><path d="m117.3 1681.1h1320.8v39h-1320.8z"/><path d="m1592.8 1814.1v38h-1475.8v-38h1475.9z"/><path d="m117.3 1549.1h1230.4v38h-1230.4z"/><path d="m117.3 1284.1h957.7v39h-957.7z"/><path d="m2962.2 1407c-14.6 0-26.8 10.6-29.6 24.6-.4 2-.6 4-.6 6v154.8c0 16.8 13.6 30.6 30.1 30.6s30.1-13.7 30.1-30.6v-154.8c0-2-.1-4-.6-6-2.7-14-14.8-24.6-29.6-24.6zm401.3-105.8c-11.6 0-21.7 6.7-26.6 16.4-2.3 4.1-3.6 9-3.6 14v372.9c0 3.7.7 7.1 2 10.4 4.1 11.6 15.1 20 28.1 20s24.1-8.4 28.4-20c1.1-3.3 1.9-6.7 1.9-10.4v-372.9c0-5-1.3-9.8-3.6-14-5-9.7-15-16.4-26.7-16.4zm-100.3 94c-16.7 0-30.1 13.7-30.1 30.6v188c0 16.8 13.4 30.6 30.1 30.6s30.1-13.7 30.1-30.6v-188c0-16.8-13.6-30.6-30.1-30.6zm-100.4-229.4c-16.5 0-30.1 13.6-30.1 30.4v640.4c0 3.9.7 7.4 2 10.7 4.3 11.6 15.3 19.7 28.1 19.7s24-8.2 28.3-19.7c1.3-3.3 2-6.8 2-10.7v-640.4c0-16.8-13.6-30.4-30.3-30.4zm-100.2 176.4c-16.7 0-30.3 13.6-30.3 30.4v288.2c0 16.7 13.6 30.4 30.3 30.4s30.1-13.7 30.1-30.4v-288.2c0-16.8-13.6-30.4-30.1-30.4zm501.6 126.5c-16.7 0-30.3 13.6-30.3 30.4v41c0 9.7 4.4 18.3 11.4 23.8 5.1 4.3 11.9 6.7 18.9 6.7s13.6-2.4 18.7-6.7c7-5.6 11.4-14.1 11.4-23.8v-41c0-16.8-13.6-30.4-30.1-30.4zm-100.4-78.2c-16.6 0-30.1 13.7-30.1 30.6v188c0 16.8 13.6 30.6 30.1 30.6s30.1-13.7 30.1-30.6v-188c0-16.8-13.4-30.6-30.1-30.6zm200.6 0c-16.6 0-30.1 13.7-30.1 30.6v188c0 16.8 13.6 30.6 30.1 30.6s30.3-13.7 30.3-30.6v-188c0-16.8-13.6-30.6-30.3-30.6zm100.4 78.2c-16.7 0-30.3 13.6-30.3 30.4v41c0 9.7 4.4 18.3 11.4 23.8 5.1 4.3 11.7 6.7 18.8 6.7 16.6 0 30.1-13.7 30.1-30.6v-41c0-16.8-13.6-30.4-30.1-30.4zm-902.8-6.6c-16.7 0-30.3 13.7-30.3 30.4v47.7c0 9.6 4.3 18 11.1 23.7 5.1 4.1 12 6.7 19.1 6.7s13.9-2.6 19-6.7c6.8-5.7 11.1-14.1 11.1-23.7v-47.7c0-16.7-13.6-30.4-30.1-30.4zm-100.4-23.5c-9.6 0-18 4.4-23.4 11.4-4.1 5.1-6.7 11.9-6.7 19.2v95.3c0 6.7 2.1 13 5.8 18 5.4 7.7 14.3 12.6 24.3 12.6s18.7-4.9 24.3-12.6c3.7-5 5.8-11.3 5.8-18v-95.3c0-7.3-2.6-14-6.6-19.2-5.7-7-14.1-11.4-23.6-11.4zm-100.4-65c-16.6 0-30.1 13.7-30.1 30.6v230.5c0 16.7 13.6 30.4 30.1 30.4s30.3-13.7 30.3-30.4v-230.5c0-16.8-13.6-30.6-30.3-30.6zm-100.2-148.8c-16.7 0-30.3 13.6-30.3 30.4v524.3c0 16.8 13.6 30.4 30.3 30.4s30.1-13.6 30.1-30.4v-524.3c0-16.9-13.6-30.4-30.1-30.4zm-200.6 175.5c-16.7 0-30.3 13.7-30.3 30.6v175.4c0 16.7 13.6 30.4 30.3 30.4s30.1-13.7 30.1-30.4v-175.4c0-16.8-13.6-30.6-30.1-30.6zm-200.7 470.8c-16.7 0-30.2-13.5-30.2-30.2v-649.5c0-16.7 13.5-30.2 30.2-30.2 16.7 0 30.2 13.5 30.2 30.2v649.5c0 16.7-13.5 30.2-30.2 30.2zm-100.3-528.9c-16.7 0-30.3 13.6-30.3 30.4v288.2c0 16.7 13.6 30.4 30.3 30.4s30.1-13.7 30.1-30.4v-288.2c0-16.8-13.6-30.4-30.1-30.4zm200.6 10.7c16.6 0 30.1 13.5 30.1 30.1v326.2c0 16.6-13.5 30.1-30.1 30.1-16.6 0-30.1-13.5-30.1-30.1v-326.2c0-16.6 13.5-30.1 30.1-30.1zm200.7-240c16.7 0 30.2 13.5 30.2 30.2v725.2c0 16.7-13.5 30.2-30.2 30.2-16.7 0-30.2-13.5-30.2-30.2v-725.2c0-16.7 13.5-30.2 30.2-30.2z"/><path d="m3028.4 503.5c7-81.7 33.6-148.1 33.6-148.1l-3.7-17.5-81.5 7.8-730.8 1000.2-5.3-65.7-27.1-24.6-60.2-54.5-172.4-156-222.3 97.7-188.3-244.6-474.5-159-58.6 180.8-1.4.4-104.6 326.9s12.8 12.5 35.2 34.4c8 7.8 770 760.6 836.3 807.1 174.8-177.2 1082.2-1481.5 1081.2-1474.9-1.9 12 10.5 39.2 37.3 106.3s36.7 139.7 20.2 190c-39.4 120.1-116.7 239.4-123.7 243.9s-4.6 35.2 12.7 26.7 137.6-111.8 181.3-192.3c43.7-80.6 55.3-124.8 39.6-220.1s-29.7-183-22.8-264.7zm-1004.3 1177c-17.3 10.1-37.4 18.6-59.5 25.2-11.6 3.4-23.3 7.3-34.9 11.9-44.7 17.6-88.3 45.1-121 94-7.7 11.4-14.7 24.1-21.1 38-3.1 6.8-6 14-8.8 21.5 0 0-25.7-51.8-51.2-78.8-.4-.3-52.1-64.6-114.7-98.9-10-5.4-101.8-59.8-102.9-60.4-13.9-8-28-16.4-41.9-25.1-1.6-1.1-85.8-57.3-86.4-57.8-15-10.8-29.7-21.6-43.7-32.4-19.5-18.5-119.4-106.6-129.8-120.9-3.9-5.4-7-10.3-9.4-14.9-.9-1.7-1.8-3.4-2.6-5.2-24-46.7-61.8-118.2-42-207.7 1-4.5 2.1-9 3.4-13.6 6.5-23.1 17-47.3 32.5-72.6 10.7-17.3 26.9-30.6 46-37.4 45.3-16.1 147.5-23.8 298.1 72.2 3.8-3.8 168.5 146.3 168.5 146.3 13.6-12.3 67.3-35.5 103.4-33.2 51.9 3.3 150.8 7.3 223.6 105.6 1.5 2 3 4.1 4.5 6.2l18.6 28.5s51.9 83.9 59.8 158.2-67.9 139.3-88.5 151.3z"/><path d="m1942.5 1404.6c-16.6 0-30.1 13.7-30.1 30.4v162.1c0 16.8 13.6 30.4 30.1 30.4s30.1-13.6 30.1-30.4v-162.1c0-16.7-13.4-30.4-30.1-30.4zm-809.9-371.5c-16.7 0-30.3 13.7-30.3 30.6v907.6c0 16.8 13.6 30.6 30.3 30.6s30.1-13.7 30.1-30.6v-907.6c0-16.9-13.6-30.6-30.1-30.6zm303.7 93c-16.7 0-30.1 13.6-30.1 30.4v724.6c0 16.7 13.4 30.4 30.1 30.4s30.1-13.7 30.1-30.4v-724.6c0-16.8-13.6-30.4-30.1-30.4zm-101.3 43.1c-16.7 0-30.3 13.7-30.3 30.6v638c0 3.4.6 6.6 1.6 9.7 4 12 15.4 20.7 28.7 20.7s24.6-8.7 28.6-20.7c1-3.1 1.6-6.3 1.6-9.7v-638c0-16.8-13.6-30.6-30.1-30.6zm506.2 157.1c-16.5 0-30.1 13.7-30.1 30.4v324.2c0 16.8 13.6 30.4 30.1 30.4s30.1-13.6 30.1-30.4v-324.2c0-16.7-13.4-30.4-30.1-30.4zm-303.7 3.3c-16.7 0-30.1 13.6-30.1 30.4v314.4c0 16.7 13.4 30.4 30.1 30.4s30.1-13.7 30.1-30.4v-314.4c0-16.8-13.6-30.4-30.1-30.4zm-506.2-122.1c-16.7 0-30.3 13.7-30.3 30.6v560.3c0 16.7 13.6 30.4 30.3 30.4s30.1-13.7 30.1-30.4v-560.3c0-16.9-13.6-30.6-30.1-30.6zm-809.9 145.5c-16.6 0-30.2 13.7-30.2 30.5v267c0 16.8 13.5 30.5 30.2 30.5s30.2-13.7 30.2-30.5v-267c0-16.8-13.5-30.5-30.2-30.5zm110.6 97c-3-1-6.1-1.5-9.4-1.5s-6.4.5-9.4 1.5c-12.1 4-20.8 15.5-20.8 29v76.3c0 3 .4 5.9 1.3 8.7 2.4 8.1 8 14.7 15.2 18.5 4.1 2.1 8.7 3.3 13.7 3.3s9.6-1.2 13.7-3.3c7.3-3.8 12.9-10.4 15.2-18.5.8-2.7 1.3-5.7 1.3-8.7v-76.3c0-13.5-8.7-25-20.8-29zm-202.8 0c-2.9-.9-5.9-1.4-9.1-1.4s-2.5 0-3.7.2c-14.9 1.8-26.5 14.7-26.5 30.2v73.7c0 16.8 13.5 30.5 30.2 30.5s4.5-.3 6.6-.8c9.8-2.2 17.8-9.2 21.4-18.5 1.4-3.5 2.1-7.2 2.1-11.2v-73.7c0-13.6-8.9-25.1-21.1-29.1zm294.7-197.6c-16.7 0-30.2 13.7-30.2 30.5v469.6c0 16.8 13.5 30.4 30.2 30.4s30.2-13.7 30.2-30.4v-469.6c0-16.8-13.5-30.5-30.2-30.5zm303.7 150.5c-16 0-29.2 12.7-30.1 28.6v1.8 165.8c0 16.8 13.5 30.5 30.2 30.5s30.2-13.7 30.2-30.5v-165.8c0-.6 0-1.2 0-1.8-.9-15.9-14.1-28.6-30.1-28.6zm107.9 28.6c-2.1-.5-4.4-.8-6.7-.8s-4.5.3-6.6.8c-9.8 2.2-17.8 9.2-21.4 18.5-1.4 3.5-2.1 7.2-2.1 11.2v109.7c0 4.1.8 8 2.3 11.6 4.5 11.1 15.3 18.9 27.9 18.9s23.4-7.8 27.9-18.9c1.5-3.6 2.2-7.5 2.2-11.6v-109.7c0-4-.8-7.7-2.1-11.2-3.6-9.2-11.6-16.3-21.4-18.5zm94.6-56.9c-16.7 0-30.2 13.7-30.2 30.5v222c0 16.8 13.5 30.5 30.2 30.5s30.2-13.7 30.2-30.5v-222c0-16.8-13.5-30.5-30.2-30.5zm-303.8-20.3c-16.6 0-30.2 13.7-30.2 30.5v265.6c0 16.8 13.5 30.5 30.2 30.5s30.2-13.7 30.2-30.5v-265.6c0-16.8-13.5-30.5-30.2-30.5zm-101.2 53.7c-14.3 0-26.3 10.1-29.4 23.6-.5 2.2-.8 4.5-.8 6.9v160.8c0 16.8 13.5 30.5 30.2 30.5s30.2-13.7 30.2-30.5v-160.8c0-2.4-.3-4.7-.8-6.9-3.1-13.5-15.1-23.6-29.4-23.6zm1213.7-199.7c-16.7 0-30.3 13.5-30.3 30.3v556.9c0 16.7 13.5 30.3 30.3 30.3s30.3-13.5 30.3-30.3v-556.9c0-16.7-13.5-30.3-30.3-30.3zm-100.1-89.2c-16.6 0-30.1 13.5-30.1 30.1v715.8c0 16.6 13.5 30.1 30.1 30.1 16.6 0 30.1-13.5 30.1-30.1v-715.8c0-16.6-13.5-30.1-30.1-30.1zm-403.3-178.8h-3.3c-15.8 0-28.6 12.8-28.6 28.6v1075.7c0 15.8 12.8 28.6 28.6 28.6h3.3c15.8 0 28.6-12.8 28.6-28.6v-1075.8c0-15.8-12.8-28.6-28.6-28.6z"/></g></svg>